<svg xmlns="http://www.w3.org/2000/svg" viewBox="0 0 435.96 435.9"><defs><style>.cls-1{fill:none;}.cls-2{fill:#e0e0e0;}.cls-3{fill:#f5f5f5;}.cls-4{fill:#ebebeb;}.cls-5{fill:#fafafa;}.cls-6{fill:#263238;}.cls-12,.cls-14,.cls-16,.cls-7{fill:#fff;}.cls-13,.cls-8{fill:#06f;}.cls-9{opacity:0.3;}.cls-10{fill:#455a64;}.cls-11{opacity:0.2;}.cls-12{opacity:0.8;}.cls-13,.cls-14{fill-rule:evenodd;}.cls-14{opacity:0.5;}.cls-15,.cls-16{opacity:0.6;}</style></defs><title>robo_1</title><g id="Layer_2" data-name="Layer 2"><g id="Background_Complete" data-name="Background Complete"><path class="cls-1" d="M330.19,151.64a18.52,18.52,0,0,1,3.43-3.53l-.84-4.48,6.93-3,2.69,3.69a18.33,18.33,0,0,1,4.91-.07l2.58-3.76,7,2.79-.7,4.5a18.46,18.46,0,0,1,3.52,3.43l4.48-.83,3,6.93L363.5,160a18.4,18.4,0,0,1,.07,4.92l3.76,2.58-2.78,7L360,173.8a18.52,18.52,0,0,1-3.43,3.53l.84,4.48-6.93,3-2.69-3.69a18.4,18.4,0,0,1-4.92.07l-2.57,3.76-7-2.79.7-4.5a18.47,18.47,0,0,1-3.52-3.43l-4.49.83-3-6.93,3.68-2.68a18.83,18.83,0,0,1-.07-4.92l-3.76-2.58,2.79-7,4.51.71Zm7.53,7.77a8.09,8.09,0,1,0,10.51-4.53A8.1,8.1,0,0,0,337.72,159.41Z"/><path class="cls-2" d="M337.72,159.41a1.6,1.6,0,0,1,.17-.49,6.54,6.54,0,0,1,.71-1.31,8.21,8.21,0,0,1,8.23-3.36,8.31,8.31,0,0,1,6.48,6.05,8.28,8.28,0,0,1-3.65,9.17,8.15,8.15,0,0,1-4.67,1.25,8.26,8.26,0,0,1-4.19-1.3,8.18,8.18,0,0,1-3.68-8.09,7.11,7.11,0,0,1,.38-1.45c.13-.32.2-.48.22-.47s-.24.68-.39,1.94a8.06,8.06,0,0,0,1.14,5.12A7.89,7.89,0,0,0,349.39,169a7.82,7.82,0,0,0,3.43-8.61,7.74,7.74,0,0,0-2.37-3.89,7.9,7.9,0,0,0-3.7-1.87,8,8,0,0,0-8,3.06C338,158.75,337.78,159.44,337.72,159.41Z"/><path class="cls-2" d="M330.19,151.64a2.08,2.08,0,0,1-.29,0l-.85-.11-3.38-.49.09,0c-.7,1.8-1.63,4.17-2.74,7l0-.16,3.77,2.56.08.06v.09a18.16,18.16,0,0,0,.08,4.87l0,.1-.08.07-3.68,2.69.06-.22c.94,2.18,2,4.49,3,6.92l-.22-.12,4.48-.84.13,0,.08.1a18.18,18.18,0,0,0,3.49,3.39l.11.08,0,.13c-.21,1.4-.45,2.94-.7,4.51l-.14-.26,7,2.78-.29.09,2.57-3.76.09-.12h.14a18.06,18.06,0,0,0,4.86-.07l.15,0,.09.12c.84,1.15,1.76,2.41,2.68,3.69l-.3-.09,6.92-3-.15.29c-.26-1.42-.55-3-.83-4.49l0-.15.12-.1a18.28,18.28,0,0,0,3.38-3.47h0c.5-.21.14-.06.25-.11h.07l.07,0,.14,0,.29,0,.56.09,1.13.18,2.25.35-.29.16c.95-2.37,1.88-4.7,2.79-7l.1.31-3.76-2.58-.13-.09,0-.15a17.88,17.88,0,0,0-.07-4.85l0-.15.13-.09,3.68-2.68-.08.29c-1-2.36-2-4.67-3-6.93l.27.14-4.49.83-.14,0-.08-.11a18.33,18.33,0,0,0-3.48-3.4l-.11-.08,0-.13c.25-1.55.49-3,.72-4.5l.13.23-7-2.8.24-.08-2.59,3.75-.07.1-.11,0a18.35,18.35,0,0,0-4.87.06h-.1l-.06-.08c-1-1.34-1.85-2.55-2.67-3.7l.18.06-6.94,3,.07-.13.8,4.49v.05l0,0a18.74,18.74,0,0,0-2.69,2.53l-.59.7-.2.23a1,1,0,0,1,.16-.26c.12-.16.3-.41.56-.72a17.13,17.13,0,0,1,2.65-2.61l0,.08c-.23-1.23-.52-2.69-.86-4.48l0-.09.09,0,6.91-3,.11-.05.07.1,2.7,3.68-.16-.07a19,19,0,0,1,5-.09l-.18.08c.82-1.2,1.66-2.44,2.57-3.76l.09-.13.15.05,7,2.78.16.06,0,.17c-.23,1.46-.46,3-.7,4.51l-.09-.22a18.58,18.58,0,0,1,3.57,3.47l-.22-.09,4.48-.84.19,0,.07.17q1.47,3.38,3,6.93l.08.18-.16.12-3.69,2.69.1-.25a18.5,18.5,0,0,1,.08,5l-.11-.24,3.76,2.58.17.11-.08.19q-1.36,3.47-2.78,7l-.08.2-.21,0-2.24-.36-1.13-.17-.57-.09-.28-.05-.14,0H360l.25-.1h0a18.74,18.74,0,0,1-3.48,3.57l.1-.25c.28,1.54.57,3.07.83,4.48l0,.21-.19.08-6.93,3-.19.08-.12-.16c-.92-1.28-1.84-2.54-2.68-3.69l.24.1a19.4,19.4,0,0,1-5,.07l.23-.11c-.9,1.3-1.78,2.59-2.58,3.76l-.11.16-.18-.08-7-2.79-.17-.07,0-.19c.24-1.56.49-3.1.71-4.5l.09.22a18.7,18.7,0,0,1-3.56-3.48l.21.08-4.49.82-.16,0-.06-.15c-1-2.43-2-4.75-3-6.93l-.06-.14.12-.09c1.3-.93,2.54-1.84,3.69-2.67l-.06.16a18.39,18.39,0,0,1-.06-5l.07.15-3.75-2.6-.09-.06,0-.1c1.16-2.84,2.11-5.2,2.84-7l0-.06h.07l3.33.57.86.15Z"/><path class="cls-2" d="M337.72,159.41s.12-.32.45-.9a8.07,8.07,0,1,1,6.4,12,8.26,8.26,0,0,1-7.56-8.58,9.56,9.56,0,0,1,.16-1.31c0-.22.09-.43.14-.64l.09-.32,0-.16,0-.06v0s0,0,0,0,0,.17.17.22l.31-.12a4.85,4.85,0,0,0-.38,1,7.7,7.7,0,0,0,.31,4.93,8,8,0,0,0,3.06,3.71,8.07,8.07,0,1,0,3.21-14.82,8.24,8.24,0,0,0-4.16,1.86,7.84,7.84,0,0,0-1.83,2.26c-.16.29-.27.53-.34.69a1.13,1.13,0,0,1-.1.24.66.66,0,0,1,0-.26,6.77,6.77,0,0,1,.3-.72,7.46,7.46,0,0,1,1.79-2.37,8.32,8.32,0,0,1,10.27-.59,8.5,8.5,0,0,1,2.8,10.67,8.58,8.58,0,0,1-3,3.4,8.48,8.48,0,0,1-4.53,1.41,8.6,8.6,0,0,1-4.76-1.34,8.41,8.41,0,0,1-3.27-4,8.16,8.16,0,0,1-.33-5.26,5.08,5.08,0,0,1,.43-1.12l.1-.19.2.07a.33.33,0,0,1,.19.26s0,.05,0,.07v.06l0,.09-.05.15-.08.31a6,6,0,0,0-.14.61,7.38,7.38,0,0,0-.15,1.23,7.57,7.57,0,0,0,.28,2.42,7.67,7.67,0,0,0,6.8,5.64,7.65,7.65,0,0,0,8.27-7.61,7.74,7.74,0,0,0-3.07-6.19,7.83,7.83,0,0,0-5.59-1.5,8,8,0,0,0-4.09,1.73,8.23,8.23,0,0,0-1.87,2.14C337.91,159.12,337.77,159.45,337.72,159.41Z"/><path class="cls-2" d="M330.19,151.64l-4.56-.73.06,0L322.84,158l0-.11,3.84,2.63-.16.14-.06-.13.21,0a18.12,18.12,0,0,0,.07,4.92l-.24,0,.06-.14.19.14-3.8,2.77,0-.17,3.09,7.19-.16-.09,4.62-.86,0,.31-.19-.07.18-.25a18.62,18.62,0,0,0,3.53,3.43l-.25.2-.08-.19.32,0c-.22,1.42-.47,3-.73,4.67l-.11-.19,7.33,2.91-.23.07,2.68-3.91.24.29-.21.1-.06-.37a18.64,18.64,0,0,0,4.93-.08l0,.39-.22-.09.24-.31,2.8,3.83-.25-.06,7.26-3.14-.12.24c-.27-1.42-.57-3-.88-4.67l.43,0-.09.23-.34-.25a18.68,18.68,0,0,0,3.43-3.54l.26.35-.22.09,0-.43,4.69.73-.25.14,2.92-7.35.08.28-3.91-2.68.35-.3.1.22-.46.07a18.52,18.52,0,0,0-.07-4.92l.46.06-.09.22-.37-.29,3.83-2.8-.08.3-3.13-7.25.27.15-4.65.87,0-.48.2.08-.28.39a18.79,18.79,0,0,0-3.52-3.42l.38-.3.08.2-.49.05c.23-1.44.48-3,.73-4.65l.15.27-7.29-2.88.31-.09-2.65,3.88-.32-.38.16-.07.07.49a18.72,18.72,0,0,0-4.89.08l.06-.49.15.06-.31.39-2.76-3.76.31.08-7.09,3.1.15-.29c.28,1.44.58,3,.88,4.56l-.5-.05,0-.07.4.3a16.79,16.79,0,0,0-3,3l-.21.28s0,0-.06,0h-.08c.08,0-.24-.27-.34-.15l-.06,0h0l.45-.54c.3-.36.62-.72.95-1.06a18.76,18.76,0,0,1,2.11-1.89l-.1.25q-.4-2.3-.81-4.53l.48.07-.06.12-.33-.36,6.94-3,0,.49-.17-.05.28-.4c.91,1.27,1.82,2.52,2.73,3.77l-.25-.1a18.77,18.77,0,0,1,5.13-.06l-.24.11,2.65-3.83.28.39-.21.06,0-.48,7,2.8-.32.36-.12-.21.47-.08c-.24,1.55-.49,3.09-.73,4.62l-.1-.24a18.63,18.63,0,0,1,3.7,3.61l-.24-.09,4.61-.85-.07.47-.24-.13.35-.32q1.5,3.52,3,6.94l-.46,0,.07-.27.38.26-3.8,2.76.1-.23a18.91,18.91,0,0,1,.07,5.2l-.1-.23,3.87,2.66-.36.27-.08-.28.44,0c-1,2.4-1.89,4.72-2.8,7l-.32-.29.25-.14.08.43-4.64-.74.21-.08a18.54,18.54,0,0,1-3.63,3.71l.09-.21c.29,1.61.57,3.13.85,4.62l-.4-.06.14-.25.27.3-6.93,3,0-.39.28.07-.23.32c-1-1.34-1.87-2.58-2.76-3.79l.19.08a18.74,18.74,0,0,1-5.17.07l.18-.08c-1,1.38-1.81,2.64-2.66,3.86l-.21-.28.26-.08v.35l-7-2.79.22-.25.12.22-.32.07c.26-1.7.5-3.18.72-4.63l.07.16a18.56,18.56,0,0,1-3.69-3.58l.15,0L326,175l0-.28.2.11-.21.19c-1.13-2.63-2.09-4.85-3-6.93l.25,0-.06.2-.2-.14,3.76-2.74-.05.11a18.62,18.62,0,0,1-.08-5.08l.05.1-3.83-2.62.14-.1,0,.14h-.17l2.78-7,.08.07-.08,0,0-.1,4.51.69a8.56,8.56,0,0,1-1.12-.11l-3.41-.47-.16,0,.14-.09.08,0,.14-.08-.05.15c-.67,1.72-1.54,4-2.72,7l-.1.25-.07-.26-.05-.14-.07-.25.21.15,3.85,2.59.05,0v.07a18.28,18.28,0,0,0,.1,5v.07l-.06,0-3.75,2.76-.3.23.1-.37.05-.2.1-.36.15.34,3,6.92.17.39-.38-.2-.2-.1-.38-.21.42-.08,4.6-.87.09,0,.06.08a18.25,18.25,0,0,0,3.64,3.51l.08.06v.1c-.23,1.45-.45,2.93-.72,4.63l-.07.5-.25-.44-.13-.22-.25-.44.47.18,7,2.77.51.2-.52.16-.26.08-.51.15.3-.44,2.65-3.87.06-.1h.12a18,18,0,0,0,5.07-.08l.12,0,.08.1,2.77,3.79.35.48-.57-.16-.28-.07-.57-.16.55-.23,6.92-3,.56-.24-.28.54-.14.25-.29.55-.11-.61c-.28-1.49-.57-3-.87-4.62l0-.13.1-.08a18.55,18.55,0,0,0,3.54-3.64l.08-.11.14,0,4.64.72.64.1-.57.33-.25.14-.56.33.24-.61,2.78-7,.25-.63.19.65.09.27.19.64-.55-.38-3.87-2.66-.12-.08,0-.14a18.36,18.36,0,0,0-.08-5.07l0-.14.12-.09,3.8-2.76.56-.41-.19.67a2.68,2.68,0,0,1-.07.27l-.18.67-.28-.64-3-6.93-.28-.65.63.33.23.13.63.33-.7.13-4.61.85-.15,0-.09-.12a18.54,18.54,0,0,0-3.61-3.52l-.12-.09,0-.15c.24-1.53.49-3.07.73-4.62l.11-.71.36.62.12.21.36.63-.67-.27-7-2.8-.67-.27.69-.21.21-.06.71-.22-.42.61-2.64,3.83-.09.13-.16,0a18.22,18.22,0,0,0-5,.06l-.15,0-.09-.13-2.73-3.76-.43-.6.71.19.16.05.72.2-.68.29-6.95,3-.67.29.34-.65.06-.11.36-.66.13.73c.27,1.5.54,3,.81,4.54l0,.15-.12.1a18.82,18.82,0,0,0-2.06,1.84c-.32.33-.62.68-.92,1l-.46.54-.05,0,0,0-.06,0c-.11.12-.42-.16-.35-.15h0v0c0-.05,0-.1,0-.15a1.13,1.13,0,0,1,.15-.29l.22-.29a17.59,17.59,0,0,1,3.05-3.1l.74-.59-.34.89,0,.07-.33.86-.17-.9c-.3-1.57-.6-3.13-.88-4.56l0-.21.19-.08,7.09-3.09.19-.09.13.17c.94,1.3,1.89,2.59,2.76,3.77l.55.75-.86-.36-.15-.06-.84-.36.9-.14a18.93,18.93,0,0,1,5-.08l.92.11-.84.38-.16.07-.83.38L347,144l2.65-3.88.12-.17.19.07,7.29,2.89.19.07,0,.21c-.25,1.6-.5,3.2-.73,4.65l-.14.9-.34-.84-.08-.19-.34-.84.73.54a19.14,19.14,0,0,1,3.61,3.51l.56.7-.84-.31-.2-.08-.84-.31.88-.17,4.65-.87.19,0,.08.18c1.08,2.51,2.16,5,3.13,7.24l.07.18-.15.12-3.83,2.79-.7.51.33-.8.09-.21.34-.8.12.85a19,19,0,0,1,.08,5l-.11.85-.35-.78-.09-.21-.35-.78.7.49,3.91,2.68.15.11-.07.17c-1,2.56-2,5.08-2.93,7.35l-.06.17-.18,0-4.69-.74-.79-.12.74-.31.22-.09.75-.3-.49.65a18.79,18.79,0,0,1-3.51,3.6l-.62.48.28-.73.08-.22.28-.74.15.77.86,4.67,0,.17-.16.07-7.27,3.12-.15.06-.1-.13c-1-1.35-1.93-2.67-2.78-3.84l-.43-.58.67.28.21.09.67.27-.72.11a18.85,18.85,0,0,1-5,.06l-.7-.08.64-.29.21-.09.63-.29-.39.58c-.95,1.36-1.87,2.71-2.69,3.89l-.08.12-.14-.05L333,182.45l-.13-.06,0-.14c.26-1.64.52-3.24.75-4.66l.09-.6.23.56.08.19.23.57-.49-.37a19.23,19.23,0,0,1-3.58-3.5l-.35-.46.53.21.19.07.54.2-.57.1-4.63.85-.12,0-.05-.11-3.06-7.2,0-.1.09-.06,3.8-2.75.36-.25-.17.4-.06.15-.18.41-.06-.44a18.58,18.58,0,0,1,0-5l0-.39.16.36.06.13.16.36-.33-.23-3.81-2.66-.07,0,0-.07,2.92-7.12,0-.05h0l3.4.6.85.17Z"/><path class="cls-2" d="M96,183.28a7.88,7.88,0,0,1,1.18-1.71l-.66-1.81L99.2,178l1.38,1.35a7.36,7.36,0,0,1,2-.38l.81-1.75,3.12.66,0,1.93a7.88,7.88,0,0,1,1.71,1.18l1.81-.67,1.74,2.68-1.35,1.38a7.5,7.5,0,0,1,.38,2l1.75.81-.66,3.12-1.93,0a7.88,7.88,0,0,1-1.18,1.71l.67,1.81-2.68,1.74-1.38-1.35a7.5,7.5,0,0,1-2,.38l-.81,1.75-3.12-.66,0-1.93a8.13,8.13,0,0,1-1.71-1.18l-1.81.66-1.74-2.67,1.35-1.39a7.75,7.75,0,0,1-.38-2l-1.75-.81.66-3.12,1.93,0ZM99.7,186a3.43,3.43,0,1,0,4.06-2.64A3.41,3.41,0,0,0,99.7,186Z"/><path class="cls-2" d="M99.7,186a2.67,2.67,0,0,1,.24-.81,3.39,3.39,0,0,1,1.62-1.63,3.28,3.28,0,0,1,1.57-.35,3.61,3.61,0,0,1,1.78.52,3.37,3.37,0,0,1,.77.65,3.3,3.3,0,0,1,.57.89,3.44,3.44,0,0,1,.24,2.18,3.52,3.52,0,0,1-1.1,1.89,3.37,3.37,0,0,1-.89.57,3.08,3.08,0,0,1-1,.28,3.47,3.47,0,0,1-1.83-.24,3.53,3.53,0,0,1-1.3-1,3.43,3.43,0,0,1-.81-2.15,2.59,2.59,0,0,1,.11-.84,6.19,6.19,0,0,0,0,.84,3.34,3.34,0,0,0,.84,2.06,3.31,3.31,0,0,0,3,1.11,3,3,0,0,0,.91-.27,3.25,3.25,0,0,0,.84-.54,3.42,3.42,0,0,0,1-1.79,3.35,3.35,0,0,0-.22-2.06,3.18,3.18,0,0,0-.54-.84,3,3,0,0,0-.73-.62,3.36,3.36,0,0,0-1.68-.52,3.32,3.32,0,0,0-1.51.31,3.43,3.43,0,0,0-1.61,1.54A7.71,7.71,0,0,0,99.7,186Z"/><path class="cls-2" d="M96,183.28h-.48l-1.45,0,0,0c-.17.8-.39,1.86-.65,3.13l0-.06,1.75.81h0v0a7.55,7.55,0,0,0,.38,2v0l0,0-1.35,1.39v-.09L96,193.3l-.09,0,1.81-.67h.05l0,0a7.83,7.83,0,0,0,1.7,1.16l.05,0v.05c0,.6,0,1.25,0,1.93l-.07-.09,3.12.66-.1,0,.81-1.75,0,0h.06a7.47,7.47,0,0,0,2-.38l0,0,0,0,1.39,1.35h-.12l2.67-1.74,0,.12c-.22-.58-.44-1.19-.67-1.81l0-.06,0,0a8,8,0,0,0,1.16-1.7h0l0-.05H110l1.93,0-.1.08c.23-1.05.45-2.09.67-3.12l0,.11-1.75-.81,0,0v0a7.67,7.67,0,0,0-.38-2v-.05l0,0,1.34-1.38v.11c-.59-.91-1.17-1.8-1.73-2.68l.11,0-1.82.66,0,0,0,0a7.31,7.31,0,0,0-1.69-1.17l-.05,0v0c0-.66,0-1.3,0-1.93l.07.08-3.12-.67.08,0c-.29.61-.55,1.19-.81,1.75l0,0h0a7.55,7.55,0,0,0-2,.37h0l0,0-1.38-1.35h.08l-2.69,1.72,0,0,.65,1.82v0h0a7.81,7.81,0,0,0-.94,1.25l-.2.33a.46.46,0,0,1-.07.11l.06-.12a3,3,0,0,1,.18-.34,7.38,7.38,0,0,1,.92-1.27v0l-.67-1.81,0,0,0,0L99.16,178l0,0,0,0,1.38,1.34h-.06a7.69,7.69,0,0,1,2.06-.39l-.06,0,.8-1.75,0-.06h.06l3.12.66.07,0v.06l0,1.93,0-.07a7.62,7.62,0,0,1,1.73,1.19l-.09,0,1.81-.67.07,0,0,.07,1.74,2.67,0,.06,0,.06-1.35,1.38,0-.09a7.9,7.9,0,0,1,.39,2.07l-.06-.09,1.76.81.07,0,0,.08q-.33,1.54-.66,3.12l0,.08H112l-1.93,0,.09-.06h0a8.13,8.13,0,0,1-1.2,1.74l0-.1.67,1.81,0,.07-.07,0-2.68,1.74-.06,0-.06,0-1.38-1.35.1,0a7.89,7.89,0,0,1-2.07.38l.08,0c-.29.61-.56,1.21-.82,1.75l0,.07-.07,0-3.12-.67h-.07v-.07c0-.67,0-1.33,0-1.93l0,.07a7.66,7.66,0,0,1-1.73-1.19h.08l-1.81.67-.06,0,0-.05-1.73-2.69,0,0,0,0,1.35-1.38v.06a7.75,7.75,0,0,1-.38-2.06l0,0-1.75-.82h0v0c.28-1.27.51-2.32.68-3.12v0h2Z"/><path class="cls-2" d="M381.65,159.92a7.92,7.92,0,0,1,1.46-1.49l-.36-1.89,2.93-1.27,1.14,1.56a8,8,0,0,1,2.08,0l1.09-1.59,3,1.18-.3,1.91a7.59,7.59,0,0,1,1.49,1.45l1.9-.36,1.26,2.94-1.56,1.13a7.62,7.62,0,0,1,0,2.08l1.59,1.09-1.18,3-1.9-.3a7.59,7.59,0,0,1-1.45,1.49l.35,1.9L390.26,174l-1.14-1.56a7.24,7.24,0,0,1-2.08,0L386,174l-3-1.18.3-1.9a8.19,8.19,0,0,1-1.49-1.45l-1.9.35-1.26-2.93,1.56-1.14a8,8,0,0,1,0-2.08l-1.59-1.09,1.18-3,1.9.3Zm3.19,3.29a3.43,3.43,0,1,0,4.45-1.91A3.43,3.43,0,0,0,384.84,163.21Z"/><path class="cls-2" d="M384.84,163.21a2.59,2.59,0,0,1,.38-.76,3.36,3.36,0,0,1,1.87-1.33,3.31,3.31,0,0,1,1.61-.08,3.49,3.49,0,0,1,1.66.81,3.45,3.45,0,0,1,.65.77,3.36,3.36,0,0,1,.42,1,3.58,3.58,0,0,1-.13,2.19,3.55,3.55,0,0,1-2.38,2.1,3.41,3.41,0,0,1-1,.11,3.49,3.49,0,0,1-2.89-1.71,3.44,3.44,0,0,1-.43-2.26,2.74,2.74,0,0,1,.24-.81s-.1.29-.17.82a3.47,3.47,0,0,0,.48,2.18,3.39,3.39,0,0,0,2.77,1.6,3.38,3.38,0,0,0,.95-.11,3.57,3.57,0,0,0,.92-.4,3.42,3.42,0,0,0,1.33-1.59,3.35,3.35,0,0,0,.12-2.07,3,3,0,0,0-.39-.92,3.12,3.12,0,0,0-.61-.73,3.35,3.35,0,0,0-3.12-.74,3.43,3.43,0,0,0-1.84,1.25A7.74,7.74,0,0,0,384.84,163.21Z"/><path class="cls-2" d="M381.65,159.92h-.11l-.37,0-1.43-.2,0,0-1.16,3,0-.06,1.59,1.08,0,0v0a7.52,7.52,0,0,0,0,2.06v0l0,0L378.67,167l0-.09c.4.92.83,1.9,1.27,2.93l-.08,0,1.9-.36h0l0,0a8.07,8.07,0,0,0,1.48,1.43l0,0v.05c-.1.59-.2,1.24-.3,1.91l-.05-.1,3,1.18-.11,0c.34-.49.72-1,1.09-1.59l0-.05h.05a7.52,7.52,0,0,0,2.06,0h.05l0,.05c.35.49.74,1,1.14,1.56l-.12,0,2.93-1.27-.06.11-.35-1.9v-.06l0,0a8.06,8.06,0,0,0,1.43-1.48h0l0,0h.06l1.91.3-.11.06,1.18-3,0,.11c-.54-.36-1.07-.73-1.59-1.09l-.05,0v-.06a7.81,7.81,0,0,0,0-2.05v-.06l.05,0,1.56-1.14,0,.11L396,159.43l.1,0-1.9.35h-.05l0,0a8,8,0,0,0-1.47-1.44l0,0v-.05c.1-.65.2-1.28.3-1.9l.05.09-3-1.19.09,0-1.1,1.59,0,0h-.05a7.42,7.42,0,0,0-2.06,0h0l0,0-1.13-1.56.07,0-2.94,1.25,0-.05c.13.76.24,1.38.34,1.9v0h0a7.78,7.78,0,0,0-1.14,1.07l-.25.3c-.06.07-.08.1-.09.09l.08-.1c0-.07.12-.18.23-.31a7,7,0,0,1,1.13-1.1l0,0c-.09-.52-.21-1.14-.36-1.9v0l0,0,2.92-1.27,0,0,0,0,1.14,1.55-.06,0a8.12,8.12,0,0,1,2.1,0l-.07,0,1.09-1.59,0,0,.06,0,3,1.18.06,0v.06l-.3,1.91,0-.08a8,8,0,0,1,1.51,1.46l-.08,0,1.89-.35.07,0,0,.07,1.27,2.93,0,.07-.06,0-1.56,1.14,0-.09a8.2,8.2,0,0,1,0,2.1l0-.09c.52.36,1.05.73,1.59,1.09l.06,0,0,.07c-.38,1-.78,2-1.18,3l0,.07h-.08l-1.91-.3.1,0h0a8.44,8.44,0,0,1-1.47,1.51l0-.09c.12.65.24,1.29.36,1.89v.08l-.07,0L390.3,174l-.07,0-.05-.06L389,172.45l.1,0a7.89,7.89,0,0,1-2.11,0l.09,0-1.1,1.59,0,.06-.06,0-3-1.18-.06,0v-.07c.1-.66.2-1.31.3-1.9l0,.08a8.06,8.06,0,0,1-1.5-1.47l.08,0-1.9.35h-.06l0-.06-1.25-2.93,0-.05,0,0,1.56-1.13,0,.06a7.74,7.74,0,0,1,0-2.09l0,0-1.59-1.1,0,0v0l1.2-3v0h0l1.42.24.36.07Z"/><path class="cls-3" d="M367.37,118.54a13.35,13.35,0,0,1,2.42-2.5l-.59-3.17,4.9-2.11,1.9,2.61a13.07,13.07,0,0,1,3.48-.05l1.83-2.66,4.95,2-.5,3.19a13,13,0,0,1,2.5,2.42l3.17-.59,2.11,4.9-2.61,1.9a13.07,13.07,0,0,1,.05,3.48l2.66,1.82-2,5-3.19-.5a13.35,13.35,0,0,1-2.42,2.5l.59,3.17-4.9,2.11-1.9-2.61a13.07,13.07,0,0,1-3.48.05l-1.82,2.66-5-2,.5-3.19a13,13,0,0,1-2.49-2.42l-3.17.59-2.12-4.9,2.61-1.9a13.07,13.07,0,0,1-.05-3.48L362.21,123l2-4.95,3.19.5ZM372.7,124a5.72,5.72,0,1,0,7.43-3.2A5.73,5.73,0,0,0,372.7,124Z"/><path class="cls-3" d="M372.7,124a4.17,4.17,0,0,1,.63-1.27,5.79,5.79,0,0,1,5.81-2.36,5.83,5.83,0,0,1,3.87,2.65,5.6,5.6,0,0,1,.7,1.62,5.84,5.84,0,0,1-2.58,6.46,5.22,5.22,0,0,1-1.61.7,5.71,5.71,0,0,1-1.68.19,6,6,0,0,1-3-.92,5.81,5.81,0,0,1-2.6-5.71,4.51,4.51,0,0,1,.42-1.36s-.18.48-.29,1.38a5.69,5.69,0,0,0,.81,3.63,5.53,5.53,0,0,0,1.81,1.83,5.59,5.59,0,0,0,2.82.84,5.41,5.41,0,0,0,3.11-.85,5.54,5.54,0,0,0,2.43-6.11,5.08,5.08,0,0,0-.65-1.53,4.92,4.92,0,0,0-1-1.23,5.6,5.6,0,0,0-5.2-1.24,5.79,5.79,0,0,0-3.08,2.09A12.76,12.76,0,0,0,372.7,124Z"/><path class="cls-3" d="M367.37,118.54l-.2,0-.61-.08-2.38-.35.05,0c-.49,1.27-1.15,2.94-1.94,5l0-.1,2.67,1.81,0,0v.06a12.54,12.54,0,0,0,.06,3.45v.07l-.06,0-2.6,1.91,0-.14,2.12,4.9-.14-.08,3.17-.6h.08l.05.06a13.13,13.13,0,0,0,2.47,2.4l.07.05V137c-.15,1-.32,2.08-.5,3.19l-.09-.16,5,2-.18.05,1.82-2.66.06-.08.09,0a13.29,13.29,0,0,0,3.44-.06h.09l.06.08,1.9,2.6-.2,0,4.9-2.11-.09.18c-.19-1-.39-2.09-.59-3.17l0-.1.08-.06a13.3,13.3,0,0,0,2.39-2.46h0l.06-.08.1,0,3.18.5-.17.1,2-5,.06.2-2.66-1.83-.08-.05v-.1a13.12,13.12,0,0,0,0-3.43l0-.1.08-.06,2.61-1.89-.05.18c-.72-1.67-1.43-3.3-2.11-4.9l.17.09-3.18.59h-.08l-.06-.07a13,13,0,0,0-2.46-2.4l-.07-.05v-.09q.27-1.64.51-3.18l.08.15-4.95-2,.15,0-1.83,2.65,0,.06h-.07a13.65,13.65,0,0,0-3.45,0H376l0,0L374,110.82l.11,0-4.91,2.09,0-.08c.22,1.27.41,2.31.57,3.17v0l0,0a13.31,13.31,0,0,0-1.9,1.79l-.42.49a1.76,1.76,0,0,1-.14.17,1.13,1.13,0,0,1,.12-.18c.08-.12.21-.29.4-.52a12.47,12.47,0,0,1,1.87-1.84l0,0c-.16-.86-.36-1.9-.61-3.16v-.06l.06,0,4.89-2.14.07,0,0,.06,1.91,2.6-.1,0a13.61,13.61,0,0,1,3.51-.06l-.11,0c.57-.85,1.17-1.72,1.81-2.66l.06-.08.09,0,5,2,.11,0,0,.1c-.16,1-.33,2.1-.5,3.19l0-.14a13.57,13.57,0,0,1,2.52,2.45l-.14-.05,3.17-.6.12,0,.05.11c.68,1.6,1.39,3.23,2.11,4.9l.05.12-.1.07-2.6,1.9.06-.15a13.37,13.37,0,0,1,.05,3.52l-.07-.15,2.66,1.82.11.07,0,.12c-.65,1.63-1.3,3.29-2,5l-.05.12-.13,0-3.18-.5.16-.06h0a13.34,13.34,0,0,1-2.45,2.52l.06-.15c.2,1.08.4,2.16.59,3.17l0,.12-.12.06-4.9,2.1-.12.06-.07-.11-1.9-2.61.15.07a13.44,13.44,0,0,1-3.52.05l.15-.07-1.83,2.66-.07.1-.11-.05-4.95-2-.11,0v-.12c.18-1.1.35-2.19.51-3.18l.06.14a13.41,13.41,0,0,1-2.52-2.46l.13,0-3.17.58-.1,0,0-.09q-1.11-2.58-2.1-4.91l0-.08.08-.06,2.61-1.89-.05.1a13.73,13.73,0,0,1,0-3.5l.05.09-2.65-1.84-.06,0,0-.07c.82-2,1.49-3.68,2-4.94v0h0l2.36.39.61.11A.91.91,0,0,1,367.37,118.54Z"/><path class="cls-2" d="M154.77,355.76s0-.46,0-1.33,0-2.18,0-3.86c0-3.39,0-8.36,0-14.75,0-12.75-.06-31.14-.11-53.72l.2.2-127.3.06h0l.26-.26c0,26.07,0,51,0,73.66l-.25-.24,91.57.11,26.29.07,7,0h1.81l.62,0h-.59l-1.79,0-7,0-26.24.06L27.46,356h-.24v-.24c0-22.68,0-47.59,0-73.66v-.26h.27l127.3.06h.2v.2c0,22.63-.08,41.06-.1,53.85,0,6.36,0,11.32-.05,14.7,0,1.67,0,2.94,0,3.82S154.77,355.76,154.77,355.76Z"/><path class="cls-2" d="M154.82,291c0,.14-28.47.26-63.59.26s-63.6-.12-63.6-.26,28.47-.26,63.6-.26S154.82,290.88,154.82,291Z"/><rect class="cls-3" x="38.49" y="303.17" width="39.32" height="39.32"/><path class="cls-2" d="M145.54,309.65a2,2,0,0,1-.58.05l-1.66.05-6.1.09-20.12.07L97,309.84l-6.09-.09-1.66-.05a2,2,0,0,1-.58-.05,2.65,2.65,0,0,1,.58,0l1.66-.05,6.09-.08,20.13-.08,20.12.08,6.1.08,1.66.05A2.65,2.65,0,0,1,145.54,309.65Z"/><path class="cls-2" d="M146.81,318.44a4.07,4.07,0,0,1-.59.05l-1.7.05-6.23.08-20.58.08-20.57-.08-6.24-.08-1.69-.05a3.86,3.86,0,0,1-.59-.05,2.27,2.27,0,0,1,.59-.06l1.69-.05,6.24-.08,20.57-.07,20.58.07,6.23.08,1.7.05A2.36,2.36,0,0,1,146.81,318.44Z"/><path class="cls-2" d="M146.81,327.22a2.16,2.16,0,0,1-.59,0l-1.7.05-6.23.08-20.58.08-20.57-.08-6.24-.08-1.69-.05a2.08,2.08,0,0,1-.59,0,2.08,2.08,0,0,1,.59-.05l1.69-.05,6.24-.08,20.57-.08,20.58.08,6.23.08,1.7.05A2.16,2.16,0,0,1,146.81,327.22Z"/><path class="cls-2" d="M146.81,336a2.36,2.36,0,0,1-.59.06l-1.7,0-6.23.09-20.58.07-20.57-.07-6.24-.09-1.69,0a2.27,2.27,0,0,1-.59-.06,3.86,3.86,0,0,1,.59-.05l1.69-.05,6.24-.08,20.57-.08,20.58.08,6.23.08,1.7.05A4.07,4.07,0,0,1,146.81,336Z"/><path class="cls-4" d="M356,414.43c-.77-3,1.24-6.07,3.48-8.26s4.92-4.14,6.09-7c1.91-4.71-.58-10.82,2.65-14.74,1.9-2.3,5.28-3.05,7-5.51a12.71,12.71,0,0,0,1.53-4.41A44.81,44.81,0,0,1,388,353.66a38.77,38.77,0,0,1-4.49,20.09c-1.31,2.47-2.92,4.87-3.36,7.62-.73,4.48,1.75,9.11.62,13.5-1.29,5-7,8.36-7.25,13.54-.25,4.37,3.54,8.24,3.23,12.61a11.8,11.8,0,0,1-2,5.18c-3.41,5.61-8.41,9.46-15.95,9.29l-9.23.27Z"/><path class="cls-2" d="M347.62,435.82a7.46,7.46,0,0,1-2.54-.06,16,16,0,0,1-3-.78,12.55,12.55,0,0,1-3.7-2.05,5.27,5.27,0,0,1-1.51-2,9.49,9.49,0,0,1-.42-2.76,25.88,25.88,0,0,0-.2-3,8.23,8.23,0,0,0-1.11-3c-1.08-1.92-2.87-3.74-3.44-6.34s-.15-5.32.29-8.09.88-5.78-.16-8.68-3-5.51-4-8.77-.5-6.82-.69-10.31a13.72,13.72,0,0,0-1.18-5.14c-.73-1.63-1.76-3.18-2.56-4.91-1.62-3.48-1.89-7.43-2.31-11.29q-.31-2.92-.63-5.91a29.67,29.67,0,0,0-1-5.91,51.93,51.93,0,0,0-2.18-5.72,19.2,19.2,0,0,1-1.05-3,28.86,28.86,0,0,1-.28-3.18,36,36,0,0,1,.28-6.39c.26-2.13.66-4.24.9-6.37,0-.13,0-.25,0-.37l.05-.43.38.2a14.23,14.23,0,0,1,4.95,4.22,22.74,22.74,0,0,1,3,5.64c1.52,4,2.05,8.14,2.8,12.11s1.72,7.88,3.73,11.19c1,1.65,2.22,3.16,3.28,4.77a13.12,13.12,0,0,1,2.27,5.27c.52,3.91-1.65,7.33-1.22,10.79a12,12,0,0,0,1.65,4.8c.83,1.48,1.81,2.85,2.74,4.23a26.85,26.85,0,0,1,2.45,4.28,13.4,13.4,0,0,1,1.11,4.63c.21,3.12-.25,6.07,0,8.86a20.32,20.32,0,0,0,2.24,7.6c1.1,2.27,2.33,4.34,3.36,6.33.52,1,1,2,1.38,2.95a15.08,15.08,0,0,1,.8,2.93,18.27,18.27,0,0,1,0,5.27,13.23,13.23,0,0,1-2.67,6.7,6.76,6.76,0,0,1-.76.81,3.22,3.22,0,0,1-.61.51c-.34.25-.53.36-.53.36a10.67,10.67,0,0,0,1.8-1.75,13.32,13.32,0,0,0,2.55-6.66,18.66,18.66,0,0,0-.09-5.2,14,14,0,0,0-.8-2.85,31.91,31.91,0,0,0-1.39-2.91c-1-2-2.29-4-3.41-6.33a20.72,20.72,0,0,1-2.32-7.73c-.22-2.85.22-5.81,0-8.86a12.84,12.84,0,0,0-1.08-4.47,26.15,26.15,0,0,0-2.43-4.19c-.93-1.37-1.92-2.75-2.77-4.26a12.47,12.47,0,0,1-1.73-5c-.43-3.69,1.73-7.13,1.19-10.76A12.5,12.5,0,0,0,335,359.8c-1-1.58-2.27-3.09-3.3-4.78-2.08-3.4-3.07-7.39-3.82-11.37s-1.29-8.11-2.78-12a22.21,22.21,0,0,0-2.95-5.49,13.59,13.59,0,0,0-4.73-4l.42-.24c0,.12,0,.25,0,.38-.25,2.15-.64,4.27-.9,6.37a36,36,0,0,0-.28,6.3,30.68,30.68,0,0,0,.26,3.08,18.67,18.67,0,0,0,1,2.88,51.3,51.3,0,0,1,2.19,5.79,28.61,28.61,0,0,1,1,6q.31,3,.62,5.91c.42,3.88.69,7.76,2.25,11.13.77,1.67,1.79,3.22,2.55,4.91a14.11,14.11,0,0,1,1.21,5.33c.18,3.56-.3,7,.64,10.2s2.94,5.78,3.94,8.77.6,6.13.15,8.89-.93,5.48-.34,7.93,2.26,4.29,3.36,6.26a8.68,8.68,0,0,1,1.13,3.1,26.58,26.58,0,0,1,.17,3,9.93,9.93,0,0,0,.38,2.69,5,5,0,0,0,1.42,1.95,12.79,12.79,0,0,0,3.61,2.06,16.86,16.86,0,0,0,3,.82,12.89,12.89,0,0,0,1.88.19Z"/><path class="cls-2" d="M319.07,326.89a1.33,1.33,0,0,1,.09.28c0,.22.12.5.2.84.17.72.39,1.82.73,3.2s1.18,2.92,1.88,4.83a67.41,67.41,0,0,1,2.16,6.56c.69,2.47,1.3,5.2,1.94,8.14a34.23,34.23,0,0,0,2.9,9c.75,1.5,1.59,3,2.26,4.69a21.94,21.94,0,0,1,1.3,5.31A105.2,105.2,0,0,0,334.46,381c1.8,7.57,3.53,14.79,5.09,21.36l4.28,17.42c1.19,4.93,2.15,8.94,2.83,11.76l.75,3.21c.07.34.13.61.17.83a.92.92,0,0,1,0,.29,1.08,1.08,0,0,1-.1-.27l-.23-.82c-.21-.77-.49-1.84-.85-3.18-.72-2.81-1.75-6.8-3-11.71s-2.74-10.86-4.4-17.4-3.32-13.79-5.14-21.37A105.89,105.89,0,0,1,332,369.85a20.87,20.87,0,0,0-1.25-5.18c-.64-1.62-1.47-3.14-2.22-4.66a34.2,34.2,0,0,1-2.89-9.17c-.62-2.94-1.2-5.67-1.86-8.13a68.51,68.51,0,0,0-2.07-6.55c-.66-1.91-1.47-3.48-1.8-4.89s-.48-2.5-.62-3.24c-.06-.34-.1-.62-.14-.84A1.12,1.12,0,0,1,319.07,326.89Z"/><path class="cls-2" d="M346,435.84c-6-3.61-7.67-14.5-5.12-21s7-12.49,7.71-19.47c.55-5.36-1.18-10.88.1-16.12,1.73-7.07,8.67-12.52,8.63-19.8,0-4.08-2.32-7.93-2.11-12,.26-5,4.12-8.95,6.52-13.35,3.68-6.72,4-14.7,5.25-22.26s4.22-15.64,10.95-19.32c.95,6.43,2.62,10.84,2,19.53-.21,3.13-3.88,9.09-4.41,15.93-.32,4.1-.55,8.19-.82,12.29s-.55,8-2,11.76c-1.11,2.85-2.88,5.44-3.71,8.39-1.56,5.54.41,11.56-.85,17.18-1.08,4.76-4.4,8.84-5.1,13.66-1,6.79,3.37,13.86,1.08,20.33-1.13,3.2-3.79,5.77-4.56,9.08-.59,2.57,0,5.3-.52,7.88-.87,4.16-8.83,7.63-13.08,7.34"/><path class="cls-5" d="M376.22,298.84a1.64,1.64,0,0,1,0,.36c0,.27-.08.62-.14,1.05-.15.93-.31,2.29-.63,4.05s-1.27,3.76-2,6.16-1.56,5.15-2.25,8.24-1.31,6.51-1.93,10.2-1.31,7.69-3.16,11.52c-.85,1.92-1.81,3.84-2.54,5.9a26.58,26.58,0,0,0-1.31,6.51,129.31,129.31,0,0,1-1.85,14c-1.9,9.51-3.71,18.56-5.35,26.8s-3.3,15.61-4.62,21.83-2.4,11.2-3.16,14.71c-.38,1.7-.67,3-.89,4l-.24,1c-.06.24-.1.63-.11.62a4,4,0,0,1,.05-.63l.19-1c.18-1,.44-2.31.78-4,.71-3.52,1.72-8.55,3-14.74l4.49-21.86c1.63-8.24,3.43-17.29,5.31-26.79a130.79,130.79,0,0,0,1.85-14,27.1,27.1,0,0,1,1.36-6.64c.74-2.1,1.72-4,2.57-5.94,1.84-3.77,2.5-7.71,3.18-11.38s1.26-7.1,2-10.2a85.22,85.22,0,0,1,2.35-8.26c.78-2.4,1.73-4.38,2.1-6.1s.56-3.1.74-4c.08-.43.15-.77.2-1A1.35,1.35,0,0,1,376.22,298.84Z"/></g><g id="Floor"><path class="cls-6" d="M429.39,435.55c0,.15-95.42.26-213.1.26S3.16,435.7,3.16,435.55s95.4-.26,213.13-.26S429.39,435.41,429.39,435.55Z"/></g><g id="Character"><path class="cls-7" d="M233.47,401.13a.42.42,0,1,1,.06.73.44.44,0,0,1-.06-.73"/><path class="cls-8" d="M321.32,105.78l15.34,6.89s-24,34.16-28.91,39.66-53.33,12.34-53.33,12.34l-2.32-20.23,41.25-7Z"/><path class="cls-7" d="M305.55,153.94c-.1,0-.2-1.21-.72-3.09a22,22,0,0,0-1.19-3.21,22.8,22.8,0,0,0-2.12-3.6,23.32,23.32,0,0,0-2.78-3.13,22.41,22.41,0,0,0-2.69-2.11c-1.64-1.07-2.77-1.54-2.73-1.63a2.61,2.61,0,0,1,.82.27,13.92,13.92,0,0,1,2.1,1.05,18.38,18.38,0,0,1,2.82,2.07,20.79,20.79,0,0,1,2.88,3.17,21.62,21.62,0,0,1,2.14,3.71,18.33,18.33,0,0,1,1.1,3.32,14.51,14.51,0,0,1,.37,2.32A3.18,3.18,0,0,1,305.55,153.94Z"/><path class="cls-7" d="M302.38,146.22a9.29,9.29,0,0,1-1.54.53c-1,.31-2.45.72-4.25,1.21-3.61,1-8.63,2.23-14.21,3.4S271.7,153.42,268,154c-1.85.28-3.35.49-4.39.61a11.1,11.1,0,0,1-1.62.14,9,9,0,0,1,1.59-.34l4.36-.77c3.68-.65,8.75-1.58,14.33-2.76s10.6-2.36,14.22-3.25l4.3-1A11.43,11.43,0,0,1,302.38,146.22Z"/><path class="cls-7" d="M325.22,108c.11.1-6.09,7.3-13.86,16.08s-14.14,15.83-14.24,15.73,6.09-7.29,13.85-16.08S325.12,107.91,325.22,108Z"/><path class="cls-7" d="M305.72,132.3a.42.42,0,1,1,.06.74.44.44,0,0,1-.06-.74"/><path class="cls-7" d="M280.6,148.58a.45.45,0,0,1,.65.32.44.44,0,0,1-.58.41.43.43,0,0,1-.1-.7"/><path class="cls-7" d="M292.68,145.91a.42.42,0,1,1,.06.73.43.43,0,0,1-.06-.73"/><path class="cls-7" d="M312.57,124.61a.42.42,0,1,1,.07.74.44.44,0,0,1-.1-.71"/><path class="cls-7" d="M319.76,116.47a.42.42,0,1,1,.06.73.44.44,0,0,1-.06-.73"/><g class="cls-9"><path class="cls-7" d="M290.93,139.47c.12.71-6.1,2.3-13.89,3.56s-14.19,1.71-14.31,1,6.11-2.31,13.9-3.57S290.82,138.76,290.93,139.47Z"/></g><path class="cls-7" d="M270.15,150.45a.44.44,0,0,1,.64.32.42.42,0,1,1-.68-.29"/><path class="cls-6" d="M247.78,141.51A11,11,0,0,1,259.64,145,13.94,13.94,0,0,1,262,157.44c-1.19,4.23-6.83,9.95-10.65,11.54"/><path class="cls-8" d="M340.71,108a31.48,31.48,0,0,0,3.38-5.47,10.59,10.59,0,0,0,.93-6.28,6.45,6.45,0,0,0-3.82-4.84,4.69,4.69,0,0,0-5.62,1.85l4.07-8.05c.5-1,1-2.22.34-3.12a2.11,2.11,0,0,0-2.77-.28,6.17,6.17,0,0,0-1.86,2.41l-6,11.29q-2.65-4.16-5.32-8.32c-.53-.85-1.3-1.8-2.29-1.65a1.8,1.8,0,0,0-1.32,1.78,5.18,5.18,0,0,0,.67,2.28c1.56,3.29,4.37,10.75,4.37,10.75Z"/><path class="cls-10" d="M251.34,168.4c-.09-.08,1.37-1.18,3.11-3.47a15.27,15.27,0,0,0,2.32-4.42,15.73,15.73,0,0,0,.61-6.07,22.08,22.08,0,0,0-3.54-10.5,7.79,7.79,0,0,0-2.24-2.49,5.74,5.74,0,0,0-1.13-.49s.12,0,.33,0a2.66,2.66,0,0,1,.9.31,7.21,7.21,0,0,1,2.44,2.45,21.33,21.33,0,0,1,3.76,10.67,15.76,15.76,0,0,1-.67,6.26,14.74,14.74,0,0,1-2.49,4.49,17.69,17.69,0,0,1-2.4,2.49A4.57,4.57,0,0,1,251.34,168.4Z"/><path class="cls-6" d="M321.32,105.78a104.37,104.37,0,0,0,13,7.06c1.79.84,4,1.6,5.62.46a3.77,3.77,0,0,0,1.24-3.85,8.38,8.38,0,0,0-2.12-3.66,23.43,23.43,0,0,0-11-6.89,9.78,9.78,0,0,0-4.64-.36,4.5,4.5,0,0,0-3.41,2.89,3.8,3.8,0,0,0,1.28,4.35"/><path class="cls-10" d="M340.57,111.4c-.08,0-.67-1.19-2-2.9a18.87,18.87,0,0,0-14.67-7.22c-2.18,0-3.51.26-3.53.16a3.38,3.38,0,0,1,.92-.26,16,16,0,0,1,2.6-.27,18,18,0,0,1,8.4,1.84,18.27,18.27,0,0,1,6.58,5.53,15.7,15.7,0,0,1,1.36,2.23A3.29,3.29,0,0,1,340.57,111.4Z"/><path class="cls-6" d="M241.71,215.69c.15.29-1.78,1.67-5.28,3.15a45.11,45.11,0,0,1-6.35,2.08,48.49,48.49,0,0,1-16.28,1.2,43.69,43.69,0,0,1-6.59-1.13c-3.68-1-5.79-2-5.68-2.34s2.38.07,6,.53c1.82.24,4,.43,6.4.55a77.49,77.49,0,0,0,7.84-.12c2.77-.22,5.39-.6,7.77-1s4.49-1,6.25-1.48C239.36,216.11,241.54,215.34,241.71,215.69Z"/><path class="cls-6" d="M240.41,221.2c.11.32-1.74,1.33-5,2.4a56.86,56.86,0,0,1-26.17,1.9c-3.34-.59-5.31-1.32-5.25-1.66.14-.76,8.28.41,18.26-.36S240.16,220.47,240.41,221.2Z"/><path class="cls-8" d="M204.19,74s-33,6.1-32.59,35.64,28.37,24.58,36.48,23.54c3.68-.47,11-1.51,17.93-2.51,14.68-2.11,25.62-9.25,26.5-24a27.56,27.56,0,0,0-.18-5.21C250.25,85.76,235.69,67,204.19,74Z"/><path class="cls-6" d="M239.8,103.59l-42.11,8.94a8.16,8.16,0,0,1-9.69-6.3h0a8.17,8.17,0,0,1,6.29-9.69l42.12-8.93a8.16,8.16,0,0,1,9.68,6.3h0A8.16,8.16,0,0,1,239.8,103.59Z"/><circle class="cls-7" cx="203.37" cy="103.66" r="2.62"/><circle class="cls-7" cx="232.79" cy="97.41" r="2.62"/><path class="cls-7" d="M217.05,89.56a22.69,22.69,0,0,1-1.41-3,29.19,29.19,0,0,0-4.1-6.7,14.82,14.82,0,0,0-6.17-4.65,27.11,27.11,0,0,0-3.16-.8,2.78,2.78,0,0,1,.89,0,10.57,10.57,0,0,1,2.39.47,14.12,14.12,0,0,1,6.45,4.67,25.7,25.7,0,0,1,4,6.89c.38,1,.65,1.72.83,2.26A3,3,0,0,1,217.05,89.56Z"/><path class="cls-7" d="M218.1,131.78c-.06-.07.89-1,2.05-2.72a18.3,18.3,0,0,0,2.89-7.52,31,31,0,0,0-.07-8.14,29.47,29.47,0,0,1-.45-3.38,2.76,2.76,0,0,1,.28.88c.14.57.34,1.4.54,2.44a27.75,27.75,0,0,1,.22,8.28,17.23,17.23,0,0,1-3.11,7.65,15.49,15.49,0,0,1-1.64,1.91A3.21,3.21,0,0,1,218.1,131.78Z"/><g class="cls-9"><path d="M248.75,118.94a26.41,26.41,0,0,0-12.83-3.9,63.17,63.17,0,0,0-13.51.93c-10.34,1.55-20.92,4-29.3,10.26a16,16,0,0,0-5.65,6.65s4.43,1.82,13.29,1.23,27.14-3.77,27.14-3.77,9.34-1.58,14.63-5.52S248.75,118.94,248.75,118.94Z"/></g><path class="cls-7" d="M248.65,93.08a6.53,6.53,0,0,1,.38,1.51,9.55,9.55,0,0,1-.4,4.45,10.24,10.24,0,0,1-4.47,5.41,28.58,28.58,0,0,1-8.89,3l-23.83,5.21-6.89,1.5c-2.35.49-4.72,1.11-7.23,1.44a11.4,11.4,0,0,1-7.53-1.29,10.75,10.75,0,0,1-3.72-14.13A11.64,11.64,0,0,1,191.71,95a19.31,19.31,0,0,1,3.6-1l3.54-.83,6.87-1.61,12.69-3c4-.86,7.63-2,11.05-2.66a36.14,36.14,0,0,1,4.93-.68,19,19,0,0,1,4.44.16,13.91,13.91,0,0,1,6.51,2.72,9.74,9.74,0,0,1,2.78,3.5,6.28,6.28,0,0,1,.42,1.08,2,2,0,0,1,.11.39s-.17-.52-.62-1.43a10.11,10.11,0,0,0-2.81-3.38,13.87,13.87,0,0,0-6.44-2.59,18,18,0,0,0-4.37-.11,34,34,0,0,0-4.87.7c-3.39.7-7,1.84-11,2.72l-12.68,3L199,93.62l-3.54.84a19.79,19.79,0,0,0-3.52,1,11.18,11.18,0,0,0-5.39,4.94,10.25,10.25,0,0,0,3.54,13.45,10.82,10.82,0,0,0,7.2,1.22c2.45-.31,4.84-.93,7.19-1.41l6.89-1.49,23.85-5.1c3.39-.7,6.46-1.47,8.81-2.89A10,10,0,0,0,248.43,99a9.6,9.6,0,0,0,.5-4.36C248.8,93.6,248.62,93.08,248.65,93.08Z"/><path class="cls-7" d="M172.06,114.5a7.35,7.35,0,0,1,1.61-1.4,28.91,28.91,0,0,1,4.41-2.69,28.53,28.53,0,0,1,4.82-1.84,7.29,7.29,0,0,1,2.1-.42c0,.16-3.12,1-6.69,2.73S172.16,114.64,172.06,114.5Z"/><path class="cls-7" d="M206.35,78.1a.42.42,0,1,1,.06.74.44.44,0,0,1-.06-.74"/><path class="cls-7" d="M211.59,85.75a.42.42,0,1,1,.06.73.44.44,0,0,1-.06-.73"/><path class="cls-7" d="M179.92,107.16a.43.43,0,0,1,.64.31.42.42,0,1,1-.67-.29"/><path class="cls-7" d="M173.38,110.66a.42.42,0,1,1,.06.73.43.43,0,0,1-.06-.73"/><g class="cls-9"><path class="cls-7" d="M213.1,74.45c.08.37-2.89,1.22-7.58,2.72s-11.12,3.76-17.1,8a34.1,34.1,0,0,0-7.3,7.17,28.62,28.62,0,0,0-4,7.34c-1.64,4.51-1.44,7.64-1.88,7.65-.17,0-.41-.75-.52-2.17a18.81,18.81,0,0,1,.64-6A26.31,26.31,0,0,1,179.17,91a32.55,32.55,0,0,1,7.73-7.89,43.56,43.56,0,0,1,9.66-5.16A59.7,59.7,0,0,1,205,75.39C209.94,74.32,213,74.12,213.1,74.45Z"/></g><g class="cls-9"><path class="cls-7" d="M181.2,121.91c-.43.56-2.34-.22-3.73-2.19s-1.52-4-.85-4.24,1.79,1.1,3,2.73S181.66,121.34,181.2,121.91Z"/></g><path class="cls-8" d="M249.63,138c2,.57,1.87,29.53,1.45,44.31-.23,7.92-.83,16.18-4.87,23-4.5,7.6-13.06,12.44-21.87,13-10.6.71-21.08-4.42-28.33-12.18s-11.54-17.91-13.85-28.28-2.76-21.06-3.2-31.67C179,146.18,213.27,127.66,249.63,138Z"/><g class="cls-11"><path d="M180.56,160.18c-.23,9.33,1.41,20.11,4.4,27.9,3.24,8.43,7.95,16,15.8,22.39a49,49,0,0,0,7,4.37,30.56,30.56,0,0,0,6.58,2.46c3.73,1.07,5.93-3.54,6.66-7.35s-.64-7.8-3-10.91a32.46,32.46,0,0,0-8.77-7.55,105.74,105.74,0,0,1-9.69-6.44c-5.18-4.21-9-9.9-11.85-15.93A134.05,134.05,0,0,1,181,150.26"/></g><path class="cls-7" d="M205.05,199.69a.43.43,0,0,1,.64.31.42.42,0,1,1-.67-.29"/><path class="cls-7" d="M217.88,199.18a.43.43,0,0,1,.64.32.43.43,0,0,1-.58.41.44.44,0,0,1-.09-.71"/><path class="cls-7" d="M231.9,185.93a.44.44,0,0,1,.65.32.42.42,0,1,1-.68-.3"/><path class="cls-7" d="M225.46,153.21a.42.42,0,1,1,.06.73.43.43,0,0,1-.06-.73"/><path class="cls-7" d="M238.6,158.57a.42.42,0,1,1,.06.74.44.44,0,0,1-.09-.71"/><path class="cls-7" d="M190.5,195.9a.42.42,0,1,1,.06.73.43.43,0,0,1-.06-.73"/><path class="cls-7" d="M188.38,185a.42.42,0,1,1,.06.73.43.43,0,0,1-.06-.73"/><path class="cls-7" d="M187.46,175.15a.44.44,0,0,1,.64.31.42.42,0,1,1-.68-.29"/><path class="cls-7" d="M186.52,164.67a.42.42,0,1,1,.06.73.43.43,0,0,1-.06-.73"/><path class="cls-7" d="M246.41,156a.44.44,0,0,1,.64.32.45.45,0,0,1-.58.42.44.44,0,0,1-.1-.71"/><path class="cls-7" d="M234,198.19a.42.42,0,1,1,.06.74.44.44,0,0,1-.09-.71"/><path class="cls-7" d="M235.45,208.54a.42.42,0,1,1,.06.73.43.43,0,0,1-.06-.73"/><g class="cls-9"><path class="cls-7" d="M241.67,145.75c.1.31-3,1.69-8.3,3.13a88.66,88.66,0,0,1-9.43,2,98.9,98.9,0,0,1-23.57.79,88.73,88.73,0,0,1-9.54-1.34c-5.38-1.08-8.58-2.25-8.5-2.57.17-.79,13.32,2.24,29.76,1.62S241.45,145,241.67,145.75Z"/></g><path class="cls-7" d="M203.85,212.66a3.28,3.28,0,0,1-.54-.43c-.35-.29-.85-.74-1.46-1.35a20.43,20.43,0,0,1-4.23-6,31.74,31.74,0,0,1-1.67-4.78c-.52-1.74-1-3.61-1.56-5.58-1-3.94-2.08-8.31-3-12.93a208.16,208.16,0,0,1-3.32-23.87c-.24-3.08-.37-5.57-.43-7.29l-.05-2a3.67,3.67,0,0,1,0-.69,3.09,3.09,0,0,1,.09.69c0,.5.08,1.16.14,2,.13,1.71.31,4.2.6,7.27a238,238,0,0,0,3.46,23.8c.91,4.61,1.92,9,2.94,12.91.52,2,1,3.84,1.51,5.58a33,33,0,0,0,1.6,4.75,21.2,21.2,0,0,0,4,6c.59.63,1.06,1.1,1.39,1.41A3.76,3.76,0,0,1,203.85,212.66Z"/><path class="cls-7" d="M227.13,180.8c.14,0,1.22,7.95,2.4,17.78s2,17.83,1.89,17.85-1.22-7.94-2.4-17.78S227,180.82,227.13,180.8Z"/><path class="cls-7" d="M212.08,135.92s.28.23.71.71,1.06,1.19,1.81,2.08c1.5,1.77,3.56,4.23,5.8,7,.28.34.55.68.83,1l.1.13a.38.38,0,0,1,.12.15c0,.08.06.15.08.22l0,.17c0,.22.07.44.09.65.09.84.14,1.64.18,2.41.07,1.54.11,2.92.13,4.08s0,2.11,0,2.76a4.59,4.59,0,0,1-.06,1,27.07,27.07,0,0,1-.32-3.75c-.07-1.2-.15-2.57-.24-4.07-.06-.76-.11-1.56-.21-2.38a6,6,0,0,0-.09-.61l0-.14a.16.16,0,0,1,0-.09c0-.05-.13-.12-.18-.21l-.83-1c-2.24-2.74-4.24-5.24-5.68-7.07-.71-.91-1.29-1.66-1.67-2.18A3.64,3.64,0,0,1,212.08,135.92Z"/><path class="cls-7" d="M228,195.9a7,7,0,0,1-1.25.26c-.81.13-2,.3-3.45.48-2.91.36-7,.75-11.44,1s-8.55.25-11.49.18c-1.47,0-2.66-.08-3.48-.13a5.71,5.71,0,0,1-1.27-.13,5.6,5.6,0,0,1,1.28-.07l3.47,0c2.94,0,7-.11,11.46-.34s8.51-.56,11.43-.83l3.47-.31A5.1,5.1,0,0,1,228,195.9Z"/><path class="cls-7" d="M251.22,157.27s-.22.2-.68.49a20.75,20.75,0,0,1-2,1.1,43,43,0,0,1-7.07,2.72,55.62,55.62,0,0,1-7.38,1.64,15,15,0,0,1-3.12.29,23.18,23.18,0,0,1,3.06-.65c1.89-.38,4.48-1,7.3-1.78a59.86,59.86,0,0,0,7.05-2.55A31.12,31.12,0,0,1,251.22,157.27Z"/><circle class="cls-6" cx="223.79" cy="169.41" r="11.72" transform="translate(-54.24 207.87) rotate(-45)"/><circle class="cls-7" cx="223.79" cy="169.41" r="8.54" transform="translate(-46.55 93.92) rotate(-21.52)"/><path class="cls-8" d="M228.34,171.26a8.77,8.77,0,0,1-.18-1.4c-.09-.88-.2-2.13-.31-3.67l.11.17-4.57-2.24h.24c-1.32.87-2.74,1.82-4.24,2.8-.1.21.15-.28.12-.23h0V167l0,.34,0,.65c0,.44,0,.87.07,1.3,0,.84.09,1.67.13,2.46l-.13-.21,4.52,2.33H224c1.29-.82,2.36-1.48,3.12-1.94a8.49,8.49,0,0,1,1.23-.69,6.88,6.88,0,0,1-1.05.81c-.72.51-1.77,1.25-3.09,2.15l-.09.06-.11-.05L219.44,172l-.13-.06v-.14q-.08-1.2-.15-2.46c0-.43-.06-.86-.08-1.3l0-.65,0-.34v-.31h0s.22-.44.12-.23l4.25-2.78.12-.08.13.06,4.52,2.33.1.05v.11c.07,1.6.1,2.88.12,3.76A6.92,6.92,0,0,1,228.34,171.26Z"/><g class="cls-11"><path d="M179,146.18s34.33-18.76,70.67-8.22C249.63,138,234.07,152.73,179,146.18Z"/></g><path class="cls-7" d="M234.28,376.88a.44.44,0,0,1,.64.32.41.41,0,1,1-.67-.29"/><path class="cls-8" d="M219.37,248.44c.62,24.42,3.11,48.86,9.33,72.48,1.07,4.05,2.32,8.26,5.23,11.28s8,4.37,11.36,1.88c2.89-2.14,3.54-6.11,3.94-9.68a749.76,749.76,0,0,0,5.18-78.81s.76-20.13-13.43-20.12S219,233.48,219.37,248.44Z"/><g class="cls-11"><path d="M229.29,227.66c1.77-2.15,5.36-2,7.52-.24s3.13,4.61,3.45,7.38c1,8.75-3.3,17.16-4.83,25.84-1.47,8.35-.35,16.93-.76,25.41s-2.26,17.12-8.9,22.41c0,0-6.42-32.65-5.51-45.12C220.92,254.24,229.29,227.66,229.29,227.66Z"/></g><path class="cls-7" d="M231.18,260.61a6.75,6.75,0,0,1,.11.76l.24,2.18c.2,2,.48,4.69.83,8,.7,6.79,1.73,16.15,3.06,26.48s2.71,19.64,3.75,26.39c.51,3.33.93,6,1.23,8,.14.91.25,1.63.33,2.17a4.41,4.41,0,0,1,.07.77,5.67,5.67,0,0,1-.18-.75c-.1-.54-.24-1.26-.42-2.15-.35-1.88-.83-4.6-1.4-8-1.13-6.73-2.56-16.06-3.9-26.39s-2.3-19.71-2.91-26.5c-.3-3.4-.53-6.16-.66-8.06-.06-.91-.1-1.64-.14-2.19A3.44,3.44,0,0,1,231.18,260.61Z"/><path class="cls-6" d="M210.26,266.11c6.63,3.24,16.09.61,20.69-6.1s6-15,7.34-23c.45-2.69.81-5.73-.87-7.89-1.91-2.46-5.52-2.57-8.64-2.47l-29.65,1s-10.78,3.09-10.78,9.6S201.2,261.68,210.26,266.11Z"/><path class="cls-8" d="M235.75,337.65c-3.2.16-5.87,2.71-7.14,5.65s-1.39,6.22-1.5,9.42c-.69,19.44-1.36,38.91-.29,58.34.23,4.2.65,8.67,3.22,12s8.08,4.72,11,1.67c1.66-1.74,2-4.32,2.26-6.71q3.78-34.75,7.55-69.51c.29-2.62.53-5.46-.8-7.73a8.4,8.4,0,0,0-6.33-3.68,24.85,24.85,0,0,0-7.53.65"/><path class="cls-7" d="M231.83,429.16a1.16,1.16,0,0,1-.05-.23l-.09-.69c-.07-.6-.18-1.5-.28-2.65-.22-2.3-.48-5.64-.66-9.77-.4-8.26-.32-19.7.07-32.3s.74-24,1-32.29a27.92,27.92,0,0,1,1.68-9.64,13.54,13.54,0,0,1,1.25-2.35l.42-.56a1.22,1.22,0,0,1,.16-.18s0,.08-.11.21l-.38.58a17.16,17.16,0,0,0-1.16,2.38,29,29,0,0,0-1.49,9.58c-.22,8.3-.52,19.69-.85,32.28s-.53,24-.22,32.28c.14,4.12.33,7.46.49,9.77.08,1.11.14,2,.19,2.65l0,.69A.87.87,0,0,1,231.83,429.16Z"/><path class="cls-6" d="M228.61,430.7a22.86,22.86,0,0,1-.27-5.95,7.69,7.69,0,0,1,2.68-5.18,9.84,9.84,0,0,1,8.85-.86,7.71,7.71,0,0,1,3.81,5.85l1.49,7.25"/><path class="cls-8" d="M228,430.37l17.26.18s12.71,2.87,12.43,3.89-30.19-.2-30.19-.2Z"/><path class="cls-10" d="M223.74,227.56a12,12,0,0,1,.58,1.56,18.57,18.57,0,0,1,.55,1.87c.18.73.43,1.57.58,2.51s.37,2,.48,3.1.22,2.32.29,3.58a46.39,46.39,0,0,1-.47,8.23,45.11,45.11,0,0,1-2,8c-.47,1.18-.88,2.32-1.4,3.32-.24.51-.46,1-.71,1.47l-.75,1.3a24,24,0,0,1-1.38,2.18,14.28,14.28,0,0,1-1.16,1.57,9.93,9.93,0,0,1-1.09,1.26,11.68,11.68,0,0,1,.93-1.38,19.32,19.32,0,0,0,1.08-1.61c.39-.64.88-1.35,1.3-2.2.23-.42.47-.85.71-1.31s.45-1,.68-1.46c.5-1,.89-2.13,1.34-3.3a48.23,48.23,0,0,0,2-7.9,49.43,49.43,0,0,0,.5-8.13c-.06-1.25-.09-2.45-.23-3.55s-.26-2.14-.42-3.08-.35-1.77-.5-2.51-.32-1.37-.47-1.88A9.05,9.05,0,0,1,223.74,227.56Z"/><path class="cls-7" d="M237.23,285.77a.44.44,0,0,1,.64.32.43.43,0,0,1-.58.41.44.44,0,0,1-.09-.71"/><path class="cls-7" d="M239.77,307.17a.42.42,0,1,1,.06.73.44.44,0,0,1-.1-.71"/><path class="cls-7" d="M234.69,263.94a.42.42,0,1,1,.06.73.44.44,0,0,1-.1-.71"/><path class="cls-7" d="M234.69,356.48a.43.43,0,0,1,.64.31.42.42,0,1,1-.68-.29"/><path class="cls-10" d="M244,424.69a8,8,0,0,1-2.22.83,27.11,27.11,0,0,1-5.67,1,27.68,27.68,0,0,1-5.74-.25,8.37,8.37,0,0,1-2.32-.56,64.31,64.31,0,0,0,8,.29A64.83,64.83,0,0,0,244,424.69Z"/><g class="cls-11"><path d="M226.24,396.29c4.58-3.35,7.51-8.55,9.14-14s2.06-11.13,2.5-16.78.91-11.35,2.58-16.76a7.45,7.45,0,0,0,.53-3.62c-.42-1.95-2.4-3.08-4.21-3.9-2.24-1-5.06-1.85-7-.32-1.44,1.14-1.76,3.18-1.95,5-1.74,17-1.6,34.05-1.45,51.1"/></g><circle class="cls-6" cx="241.08" cy="334.7" r="12.28"/><path class="cls-10" d="M252.67,332.93a3.34,3.34,0,0,1-.64.76,10.57,10.57,0,0,1-2.16,1.62,16.15,16.15,0,0,1-8.62,1.94,32.59,32.59,0,0,1-8.68-1.76c-1.08-.36-1.93-.67-2.52-.9a3.79,3.79,0,0,1-.9-.41,32.58,32.58,0,0,1,3.53.95,36.61,36.61,0,0,0,8.59,1.6A17,17,0,0,0,249.7,335,22.35,22.35,0,0,0,252.67,332.93Z"/><path class="cls-8" d="M113.59,136.6s-2.42-9.88-3.7-10.34S93.13,128,93.13,128s-5-7-5.81-7.94-2.44,1.39-1.9,2.44,4.22,11.3,6.52,11.64a56.17,56.17,0,0,0,8.06-.1l1.88,6.43Z"/><path class="cls-8" d="M180.46,174.8c-9.77,3.55-16,5.36-25.78,9-5.41,2-12.31,4.25-17.43,5.56-3.41.88-7.31,1.14-10.61-.29-2.81-1.23-4.88-3.68-6.73-6.12-8.67-11.47-13.49-26-16.87-40l11.74-2.21L136,170.46l38.57-13.19L180.92,173A1.15,1.15,0,0,1,180.46,174.8Z"/><path class="cls-6" d="M180.85,150a13.7,13.7,0,0,0-4.67,23.68c1.59,1.32,3.84,2.33,5.72.33a5.47,5.47,0,0,0,1.21-2.25A29.27,29.27,0,0,0,180.85,150Z"/><path class="cls-10" d="M174.93,153.76s0-.09.15-.22a2.55,2.55,0,0,1,.55-.53,1.1,1.1,0,0,1,.55-.21,1.69,1.69,0,0,1,.69.13,1.55,1.55,0,0,1,.63.49c.17.21.33.44.51.66a20.62,20.62,0,0,1,3.69,8.3,19.54,19.54,0,0,1-.24,9.08,5.25,5.25,0,0,1-1.44,2.38,2.05,2.05,0,0,1-.89.51s.31-.2.75-.66a5.43,5.43,0,0,0,1.23-2.34,20.81,20.81,0,0,0,.08-8.87,22.13,22.13,0,0,0-3.48-8.18c-.34-.47-.58-1-1-1.1a1,1,0,0,0-1,0C175.21,153.51,175,153.8,174.93,153.76Z"/><path class="cls-7" d="M136,170.46a3.2,3.2,0,0,1,.17.86,13.51,13.51,0,0,1,.1,2.39,16.62,16.62,0,0,1-.54,3.51,17.87,17.87,0,0,1-1.67,4,18.32,18.32,0,0,1-5.34,5.77,14.25,14.25,0,0,1-2,1.21c-.51.25-.8.37-.81.33s1.06-.64,2.65-1.84a20,20,0,0,0,5.1-5.73,19.49,19.49,0,0,0,1.66-3.9,17.54,17.54,0,0,0,.63-3.41C136.06,171.71,135.9,170.47,136,170.46Z"/><path class="cls-7" d="M172.72,160.87c.05.14-8.13,3.34-18.26,7.15s-18.41,6.79-18.46,6.66,8.13-3.33,18.27-7.15S172.67,160.74,172.72,160.87Z"/><path class="cls-7" d="M106.86,142.66s.09.15.21.46l.5,1.35c.42,1.18,1,2.88,1.84,5,1.6,4.17,4,9.86,7,16,1.54,3,3.09,5.9,4.55,8.46s2.88,4.82,4.13,6.67c.6.94,1.18,1.77,1.69,2.49s.94,1.36,1.31,1.86.62.85.84,1.17a2.13,2.13,0,0,1,.27.43s-.14-.11-.35-.36L128,185c-.4-.48-.86-1.09-1.39-1.81s-1.13-1.53-1.76-2.46c-1.29-1.83-2.7-4.09-4.23-6.63s-3.06-5.41-4.6-8.47a150.7,150.7,0,0,1-6.93-16.06c-.77-2.1-1.33-3.83-1.7-5l-.4-1.39A2.31,2.31,0,0,1,106.86,142.66Z"/><path class="cls-7" d="M143.59,174.07a.42.42,0,1,0-.63-.38.44.44,0,0,0,.59.4"/><path class="cls-7" d="M127.23,178.9a.42.42,0,1,0-.63-.38.45.45,0,0,0,.6.4"/><path class="cls-7" d="M119.83,167.29a.42.42,0,1,0-.63-.38.43.43,0,0,0,.63.38"/><path class="cls-7" d="M153.16,170.7a.41.41,0,1,0-.62-.38.43.43,0,0,0,.62.38"/><path class="cls-7" d="M164,167a.42.42,0,1,1,.06.73.44.44,0,0,1-.09-.71"/><path class="cls-6" d="M102.78,143.05a85.28,85.28,0,0,0,11.92-1.68c1.57-.33,3.39-.9,3.89-2.42a3.06,3.06,0,0,0-1-3.11,6.77,6.77,0,0,0-3.15-1.36,18.93,18.93,0,0,0-10.51.81,7.82,7.82,0,0,0-3.2,2,3.64,3.64,0,0,0-.83,3.53,3.09,3.09,0,0,0,2.93,2.22"/><path class="cls-10" d="M118.06,137.42c0,.09-1-.43-2.72-.88a15.43,15.43,0,0,0-13,2.36c-1.44,1-2.18,1.85-2.24,1.79s.13-.25.46-.63a11.71,11.71,0,0,1,1.56-1.45,14.5,14.5,0,0,1,13.36-2.42,11.6,11.6,0,0,1,2,.81C117.85,137.23,118.08,137.39,118.06,137.42Z"/><path class="cls-8" d="M199.32,336.7c-3.18.34-5.7,3.05-6.79,6.06s-1,6.29-.95,9.49c.47,19.45.95,38.93,3.17,58.25.48,4.19,1.16,8.62,3.92,11.8s8.35,4.24,11.07,1c1.55-1.83,1.74-4.43,1.86-6.83q1.72-34.92,3.43-69.84c.13-2.63.21-5.47-1.26-7.66a8.39,8.39,0,0,0-6.54-3.3,24.86,24.86,0,0,0-7.48,1.09"/><path class="cls-8" d="M182.76,248.73c.62,24.42,3.11,48.85,9.33,72.47,1.07,4.06,2.32,8.27,5.23,11.29s8,4.37,11.36,1.87c2.89-2.13,3.54-6.11,3.94-9.68a749.4,749.4,0,0,0,5.18-78.8s.76-20.13-13.44-20.12S182.37,233.77,182.76,248.73Z"/><g class="cls-9"><path class="cls-7" d="M194.63,324.7c-.36.05-1.49-5.1-3-13.48s-3.49-20-5-33c-.76-6.46-1.33-12.66-1.79-18.26s-.83-10.78-.27-15.13a22.13,22.13,0,0,1,3.27-9.78l1-1.3a8.57,8.57,0,0,1,.82-.85c.47-.44.74-.64.81-.58s-.08.38-.4.91c-.16.27-.39.57-.6,1s-.47.85-.74,1.36a24.44,24.44,0,0,0-2.32,9.44c-.3,4.15.2,9.13.83,14.73s1.23,11.74,2,18.19c1.5,12.88,3.16,24.51,4.23,33S195,324.65,194.63,324.7Z"/></g><path class="cls-7" d="M202.42,335.4a1.1,1.1,0,0,1-.09-.27l-.2-.83-.75-3.17c-.63-2.77-1.46-6.78-2.37-11.76-1.8-10-3.69-23.86-5-39.26-.69-7.7-1.22-15-1.7-21.72-.23-3.34-.45-6.51-.66-9.48a66,66,0,0,1-.23-8.3,22.88,22.88,0,0,1,1.28-6.74,15.81,15.81,0,0,1,2.51-4.52,11.71,11.71,0,0,1,2.36-2.26,6.17,6.17,0,0,1,1-.6,14,14,0,0,0-3.17,3A16.07,16.07,0,0,0,193,234a22.7,22.7,0,0,0-1.19,6.66,65.83,65.83,0,0,0,.29,8.24c.22,3,.46,6.15.71,9.48.5,6.68,1.05,14,1.74,21.72,1.32,15.39,3.14,29.26,4.85,39.23.87,5,1.64,9,2.21,11.79.27,1.35.49,2.42.65,3.19.06.34.12.62.16.83A1.06,1.06,0,0,1,202.42,335.4Z"/><path class="cls-7" d="M199.66,422.16a5.92,5.92,0,0,1-.14-.84q-.11-.88-.3-2.4c-.25-2.08-.57-5.11-.94-8.85-.73-7.48-1.58-17.83-2.21-29.28s-.89-21.83-1-29.35c0-3.75,0-6.8,0-8.9,0-1,0-1.82,0-2.42a6.86,6.86,0,0,1,0-.84,4.6,4.6,0,0,1,.06.84c0,.6,0,1.41.06,2.42.05,2.15.11,5.18.19,8.9.17,7.51.5,17.88,1.12,29.33S198,402.55,198.65,410c.32,3.7.59,6.72.78,8.86.08,1,.15,1.81.2,2.41A4.56,4.56,0,0,1,199.66,422.16Z"/><circle class="cls-6" cx="202.76" cy="334.98" r="12.28"/><path class="cls-6" d="M195.6,433.08c0-2,0-7.54.58-9.46a7.65,7.65,0,0,1,3.41-4.72,9.82,9.82,0,0,1,8.88.44,7.7,7.7,0,0,1,2.91,6.35l.41,7.39"/><path class="cls-8" d="M195.87,430.65l17.26-.16s12.76,2.63,12.51,3.65-30.2.4-30.2.4Z"/><path class="cls-7" d="M196.34,269.05a.42.42,0,1,1,.06.74.44.44,0,0,1-.06-.74"/><path class="cls-7" d="M195.09,250.61a.42.42,0,1,1,.06.73.45.45,0,0,1-.06-.73"/><path class="cls-7" d="M197.88,291.71a.42.42,0,1,1,.06.73.43.43,0,0,1-.06-.73"/><path class="cls-7" d="M201,317.17a.42.42,0,1,1,.06.73.43.43,0,0,1-.06-.73"/><path class="cls-7" d="M197.47,356a.45.45,0,0,1,.65.32.42.42,0,1,1-.68-.3"/><path class="cls-7" d="M199.43,376.09a.44.44,0,0,1,.64.32.45.45,0,0,1-.58.42.44.44,0,0,1-.1-.71"/><path class="cls-7" d="M199.66,398.59a.42.42,0,1,1,.06.73.43.43,0,0,1-.06-.73"/><path class="cls-10" d="M214.8,332.55a3.58,3.58,0,0,1-.72.73,15.22,15.22,0,0,1-2.26,1.64,17.86,17.86,0,0,1-17.71.42,14.64,14.64,0,0,1-2.33-1.53,3.38,3.38,0,0,1-.75-.69c.06-.08,1.17.87,3.25,1.89a18.56,18.56,0,0,0,17.36-.41C213.67,333.48,214.74,332.47,214.8,332.55Z"/><path class="cls-10" d="M211.28,425.38a7.81,7.81,0,0,1-2.17.83,25.06,25.06,0,0,1-5.55.9,24.74,24.74,0,0,1-5.6-.37,7.64,7.64,0,0,1-2.24-.61,56.31,56.31,0,0,0,7.82.46A54.06,54.06,0,0,0,211.28,425.38Z"/><path class="cls-7" d="M224.08,99.56a3.44,3.44,0,0,1,0,2.23,5.21,5.21,0,0,1-6.84,3.43,5.34,5.34,0,0,1-2-1.41,3.36,3.36,0,0,1-1-2,10.3,10.3,0,0,0,1.25,1.74,5.5,5.5,0,0,0,1.91,1.21,5,5,0,0,0,5.13-1.17,5.3,5.3,0,0,0,1.19-1.92A9.88,9.88,0,0,0,224.08,99.56Z"/></g><g id="Plant"><path class="cls-10" d="M92.9,378.39a11,11,0,0,1,7.28,4.66,19.38,19.38,0,0,1,3.15,8.23c1,5.66-.58,12.08-2.68,17.42-5.76-2.71-8.84-9.43-10.18-12.93-2.13-5.55-2.6-16.86,2.43-17.38"/><path class="cls-10" d="M109.15,416.66a9.43,9.43,0,0,1-.22-9.46,12.53,12.53,0,0,1,7.68-5.88,5.26,5.26,0,0,1,4.43.31,4.06,4.06,0,0,1,1.46,3.82,8.16,8.16,0,0,1-1.82,3.83c-3,3.88-6.63,7.09-11.53,7.38"/><path class="cls-6" d="M107.7,434.57a4.17,4.17,0,0,1-.2-1.19c-.08-.76-.17-1.88-.25-3.26a40.44,40.44,0,0,1,.66-10.81,20.34,20.34,0,0,1,4.91-9.63,13.64,13.64,0,0,1,2.55-2.09,3.86,3.86,0,0,1,1.09-.55,27.89,27.89,0,0,0-3.3,2.95,21.19,21.19,0,0,0-4.62,9.46,47.14,47.14,0,0,0-.84,10.65A37.41,37.41,0,0,1,107.7,434.57Z"/><path class="cls-6" d="M94.24,387a12.52,12.52,0,0,1,.73,1.85c.43,1.2,1,3,1.73,5.13,1.42,4.34,3.28,10.38,5.17,17.09s3.45,12.83,4.51,17.28c.53,2.22.94,4,1.2,5.27a10.88,10.88,0,0,1,.34,2,12,12,0,0,1-.59-1.9c-.35-1.34-.82-3.1-1.39-5.22-1.17-4.42-2.8-10.51-4.69-17.22s-3.68-12.75-5-17.13l-1.53-5.18A11.62,11.62,0,0,1,94.24,387Z"/><path class="cls-10" d="M101.47,422a22,22,0,0,0-15.75-12.55c-1.74-.34-3.9-.29-4.87,1.2s-.14,3.49.91,4.93a18.84,18.84,0,0,0,19.72,6.9"/><path class="cls-6" d="M87.64,414.51a4.13,4.13,0,0,1,1.15.12,8.52,8.52,0,0,1,1.32.28,14.62,14.62,0,0,1,1.72.52,22.76,22.76,0,0,1,4.24,2,26.43,26.43,0,0,1,4.56,3.48,26.72,26.72,0,0,1,3.63,4.44,22.77,22.77,0,0,1,2.11,4.18,13,13,0,0,1,.57,1.7,8.34,8.34,0,0,1,.33,1.31,3.66,3.66,0,0,1,.15,1.15c-.12,0-.43-1.59-1.47-4a24.91,24.91,0,0,0-2.19-4,29.13,29.13,0,0,0-3.58-4.3,29.56,29.56,0,0,0-4.41-3.44,26.61,26.61,0,0,0-4.1-2.06C89.24,414.9,87.62,414.64,87.64,414.51Z"/></g><g id="Cube"><path class="cls-8" d="M389.91,37.78c-3.44-12-16.45-23.12-28.92-23.08-10.43-3.08-24.49,2.65-30.07,8.83-7.33,8.13-12,19.36-9,29.89s11.42,19.21,21.64,23.12c11.64,4.46,25.63,2.62,35.33-5.22S393.34,49.76,389.91,37.78Z"/><path class="cls-12" d="M389.91,37.78c-3.44-12-16.45-23.12-28.92-23.08-10.43-3.08-24.49,2.65-30.07,8.83-7.33,8.13-12,19.36-9,29.89s11.42,19.21,21.64,23.12c11.64,4.46,25.63,2.62,35.33-5.22S393.34,49.76,389.91,37.78Z"/><path class="cls-8" d="M372,55.6a1.37,1.37,0,0,1,0-.34c0-.25,0-.57,0-1,0-.88,0-2.12-.05-3.69,0-3.21-.05-7.8-.09-13.43l.09.16-16-9.17h.24L340.2,37.39l.13-.22h0v9.48c0,3.08,0,6.06,0,8.94l-.12-.22,15.94,9.26h-.2L367.62,58l3.21-1.8.85-.47a1.35,1.35,0,0,1,.31-.14l-.26.17-.8.5-3.14,1.87L356.13,65l-.1,0-.1,0-16-9.17-.13-.07V55.6q0-4.32,0-8.94V37.18h0s.25-.43.13-.23l16-9.2.12-.07.12.07L372.09,37l.1,0v.12c0,5.67-.07,10.28-.09,13.51,0,1.56,0,2.79,0,3.66,0,.39,0,.7,0,.94A1.34,1.34,0,0,1,372,55.6Z"/><path class="cls-8" d="M372,37.16a7.05,7.05,0,0,1-1.2.82l-3.38,2c-2.87,1.71-6.84,4-11.25,6.59-.52,0-.15,0-.27,0h0l-.05,0-.11-.06-.2-.12-.41-.24-.81-.47-1.58-.92-3-1.74-5.05-3-3.38-2a7.05,7.05,0,0,1-1.2-.82,7.91,7.91,0,0,1,1.3.64l3.47,1.9,5.1,2.89,3,1.71,1.59.91.81.47.41.24.2.12.11.06.05,0h-.21c4.41-2.54,8.41-4.82,11.32-6.45l3.47-1.9A7.91,7.91,0,0,1,372,37.16Z"/><path class="cls-8" d="M356.06,64.58a79.85,79.85,0,0,1-.26-9.2,79.6,79.6,0,0,1,.26-9.19,82.4,82.4,0,0,1,.26,9.19A82.66,82.66,0,0,1,356.06,64.58Z"/></g><g id="Gears"><path class="cls-13" d="M129.4,209.07a16,16,0,0,1,2.43-3.51l-1.35-3.73,5.51-3.54,2.83,2.77a15.9,15.9,0,0,1,4.2-.76l1.67-3.59,6.41,1.39,0,4a16.27,16.27,0,0,1,3.51,2.43l3.72-1.35,3.55,5.51-2.78,2.82a16.06,16.06,0,0,1,.77,4.21l3.59,1.67-1.39,6.41-4,0a16.2,16.2,0,0,1-2.44,3.51l1.36,3.72-5.51,3.55-2.83-2.78a16.06,16.06,0,0,1-4.2.77l-1.68,3.59-6.4-1.39,0-4a15.73,15.73,0,0,1-3.51-2.44l-3.72,1.36-3.55-5.51,2.77-2.83a16.47,16.47,0,0,1-.76-4.21l-3.59-1.67,1.39-6.41,4,0Zm7.56,5.58a7,7,0,1,0,8.37-5.38A7,7,0,0,0,137,214.65Z"/><path class="cls-14" d="M129.4,209.07a16,16,0,0,1,2.43-3.51l-1.35-3.73,5.51-3.54,2.83,2.77a15.9,15.9,0,0,1,4.2-.76l1.67-3.59,6.41,1.39,0,4a16.27,16.27,0,0,1,3.51,2.43l3.72-1.35,3.55,5.51-2.78,2.82a16.06,16.06,0,0,1,.77,4.21l3.59,1.67-1.39,6.41-4,0a16.2,16.2,0,0,1-2.44,3.51l1.36,3.72-5.51,3.55-2.83-2.78a16.06,16.06,0,0,1-4.2.77l-1.68,3.59-6.4-1.39,0-4a15.73,15.73,0,0,1-3.51-2.44l-3.72,1.36-3.55-5.51,2.77-2.83a16.47,16.47,0,0,1-.76-4.21l-3.59-1.67,1.39-6.41,4,0Zm7.56,5.58a7,7,0,1,0,8.37-5.38A7,7,0,0,0,137,214.65Z"/><path class="cls-1" d="M89,215.54A11.93,11.93,0,0,1,90.75,213l-1-2.68,4-2.58,2.06,2a11.44,11.44,0,0,1,3-.57l1.21-2.6,4.63,1,0,2.86a11.62,11.62,0,0,1,2.54,1.76l2.69-1,2.58,4-2,2.06a11.85,11.85,0,0,1,.57,3l2.6,1.21-1,4.63-2.87,0a11.25,11.25,0,0,1-1.75,2.54l1,2.69-4,2.58-2-2a11.85,11.85,0,0,1-3,.57l-1.2,2.6-4.63-1,0-2.87a11.54,11.54,0,0,1-2.55-1.75l-2.69,1-2.57-4,2-2.05a11.44,11.44,0,0,1-.57-3l-2.6-1.2,1-4.63,2.86,0Zm5.49,4a5.09,5.09,0,1,0,6-3.92A5.08,5.08,0,0,0,94.48,219.56Z"/><path class="cls-6" d="M94.48,219.56s0-.12,0-.33a4.69,4.69,0,0,1,.29-.9,5.1,5.1,0,0,1,2.41-2.47,5.25,5.25,0,0,1,5.06.24,5.31,5.31,0,0,1-2.08,9.79,5.27,5.27,0,0,1-4.73-1.84,5.08,5.08,0,0,1-1.18-3.24,3.62,3.62,0,0,1,.1-.94c.05-.21.08-.32.1-.31s0,.45,0,1.24a5.06,5.06,0,0,0,1.26,3,4.86,4.86,0,1,0,1.63-7.62A5,5,0,0,0,95,218.42C94.62,219.12,94.53,219.57,94.48,219.56Z"/><path class="cls-6" d="M89,215.54a5.08,5.08,0,0,1-.71.05l-2.15.07.08-.07c-.24,1.21-.56,2.77-.94,4.65l-.07-.15,2.61,1.18.08,0v.1a11.4,11.4,0,0,0,.57,3l0,.1-.07.07-2,2.06,0-.23,2.6,4-.25-.08,2.69-1,.12,0,.1.09a11.24,11.24,0,0,0,2.5,1.71l.12.06v.14c0,.89,0,1.87,0,2.86l-.19-.22,4.64,1-.27.13c.38-.81.78-1.7,1.2-2.6l.06-.13H100a11.42,11.42,0,0,0,3-.56l.15,0,.11.1,2.05,2-.31,0c1.25-.82,2.6-1.7,4-2.58l-.1.3-1-2.69-.06-.14.11-.12a11.54,11.54,0,0,0,1.71-2.49h0l.23-.14h1.44l1.42,0-.25.21c.34-1.57.67-3.11,1-4.64l.15.29-2.6-1.2-.14-.07v-.15a11.46,11.46,0,0,0-.55-3l0-.14.1-.11,2-2.05,0,.31q-1.3-2-2.57-4l.29.09-2.69,1-.14,0-.1-.09a11.84,11.84,0,0,0-2.49-1.73l-.13-.06v-.13c0-1,0-1.94,0-2.87l.17.21-4.64-1,.23-.11L99,209.24l0,.1h-.12a11.59,11.59,0,0,0-3,.54l-.1,0-.07-.07-2-2h.19l-4,2.55.05-.14c.38,1.08.69,2,1,2.71v0l0,0a11.74,11.74,0,0,0-1.41,1.84,7.26,7.26,0,0,1-.41.65,1,1,0,0,1,.07-.18c.06-.12.14-.29.27-.51a10.89,10.89,0,0,1,1.35-1.91V213c-.28-.74-.62-1.61-1-2.67l0-.09.08,0,4-2.61.1-.07.09.09,2.07,2-.18,0a11.85,11.85,0,0,1,3.09-.58l-.16.1,1.18-2.6.07-.15.16,0,4.64,1,.17,0v.18c0,.93,0,1.88,0,2.86l-.12-.2a12.13,12.13,0,0,1,2.6,1.78l-.24,0,2.69-1,.18-.06.1.16q1.28,1.94,2.59,4l.11.16-.14.15-2,2,.06-.25a11.49,11.49,0,0,1,.58,3.1l-.15-.22,2.6,1.2.19.09,0,.2c-.33,1.52-.65,3.07-1,4.64l0,.2h-.21l-1.43,0h-1.43l.23-.14h0a11.66,11.66,0,0,1-1.8,2.6l.06-.27c.33.93.67,1.84,1,2.69l.08.2-.18.11-4,2.58-.17.11-.14-.14-2-2,.25.06a11.7,11.7,0,0,1-3.1.57l.21-.14L99,235.2l-.08.17-.19,0-4.63-1-.18,0v-.19c0-1,0-2,0-2.86l.13.19a11.63,11.63,0,0,1-2.59-1.79l.22,0-2.69,1-.16.06-.09-.14-2.56-4-.08-.13.1-.11c.71-.71,1.39-1.4,2-2l0,.18a11.71,11.71,0,0,1-.55-3.09l.09.13-2.59-1.22-.1,0,0-.11,1-4.62v-.07h.07l2.12,0h.55Z"/><path class="cls-6" d="M94.48,219.56a3.38,3.38,0,0,1,.17-.61,4.8,4.8,0,0,1,.89-1.6,5.12,5.12,0,0,1,9,2.4,5.21,5.21,0,0,1-1.87,4.94,5.23,5.23,0,0,1-8-1.89,5.18,5.18,0,0,1-.47-1.6,4.73,4.73,0,0,1,0-.84c0-.14,0-.28,0-.42l0-.21v-.14h0v0a.28.28,0,0,0,.21.2l.28-.17a4.43,4.43,0,0,0-.12.63,4.88,4.88,0,0,0,2.94,4.9,5,5,0,0,0,6.8-5.65,5,5,0,0,0-2.71-3.45,5,5,0,0,0-6,1.29,5.44,5.44,0,0,0-1.1,2.19,1.54,1.54,0,0,1,.09-.65,4.83,4.83,0,0,1,.85-1.67,5.28,5.28,0,0,1,6.36-1.49,5.41,5.41,0,0,1,3,3.68,5.44,5.44,0,0,1-7.42,6.22,5.36,5.36,0,0,1-3.26-5.42,2.93,2.93,0,0,1,.15-.76l.06-.2.22,0c.19,0,.25.26.22.22s0,0,0,.06v.21l0,.19c0,.13,0,.26,0,.39a4.78,4.78,0,0,0,0,.76,5.24,5.24,0,0,0,.42,1.45,5,5,0,0,0,2,2.13,4.74,4.74,0,1,0,4.49-8.35A4.83,4.83,0,0,0,98,216a5,5,0,0,0-2.34,1.47A8.5,8.5,0,0,0,94.48,219.56Z"/><path class="cls-6" d="M89,215.54l-2.9.05.06-.05c-.26,1.21-.59,2.79-1,4.73l-.05-.1,2.65,1.22-.13.16-.05-.07.2-.07a11.66,11.66,0,0,0,.56,3h-.24l0-.09.2.11-2,2.12,0-.17L89,230.54l-.18-.06,2.77-1,0,.31-.12,0,.14-.28a11.85,11.85,0,0,0,2.54,1.75l-.22.24-.07-.11.31-.1c0,.91,0,1.93,0,3l-.14-.17,4.85,1-.21.1c.38-.82.81-1.75,1.24-2.7l.29.25-.12.08-.12-.36a12.1,12.1,0,0,0,3-.56l0,.38-.14,0,.18-.34,2.14,2.08-.26,0,4.17-2.71-.08.26c-.32-.86-.68-1.82-1-2.8l.42,0,0,.14-.38-.19a11.75,11.75,0,0,0,1.74-2.53l.31.3-.12.08-.13-.42,3,0-.22.18c.32-1.5.67-3.17,1-4.87l.13.27-2.7-1.25.29-.35.09.12-.44.15a11.86,11.86,0,0,0-.56-3l.46,0,0,.14-.41-.22,2.08-2.14,0,.3c-.85-1.29-1.77-2.71-2.71-4.15l.29.1-2.78,1,0-.48.13,0-.22.44a11.1,11.1,0,0,0-2.52-1.73l.33-.36.07.11-.47.14c0-.92,0-1.94,0-3l.2.24-4.82-1,.28-.15c-.38.84-.8,1.76-1.23,2.69l-.37-.32.09-.07.15.48a11.23,11.23,0,0,0-3,.56l0-.5.1,0-.24.44-2.11-2,.33,0-4.07,2.67.1-.31c.32.86.67,1.79,1,2.73l-.5,0v-.05l.45.23a10.18,10.18,0,0,0-1.5,2.15l-.1.19a.05.05,0,0,0,0,0l0,0h0c.07,0-.3-.22-.36-.09a.1.1,0,0,0,0,0l0,0h0L89,215c.15-.26.32-.52.48-.77a13.74,13.74,0,0,1,1.12-1.4l0,.26c-.34-.92-.66-1.82-1-2.72h.49l0,.08-.39-.3,4-2.56.12.48-.11,0,.21-.44,2.08,2.05-.26-.06a11.72,11.72,0,0,1,3.2-.58l-.22.15c.41-.89.83-1.78,1.23-2.66l.35.34-.12.06-.06-.48,4.63,1-.25.41-.1-.12.45-.16c0,1,0,2,0,2.94l-.14-.22a11.73,11.73,0,0,1,2.69,1.86l-.25,0,2.76-1v.47l-.16,0,.29-.37,2.57,4-.45.11,0-.18.42.2c-.7.71-1.39,1.41-2.06,2.11l0-.25a11.48,11.48,0,0,1,.59,3.24l-.13-.21,2.67,1.24-.3.32-.08-.16.43-.06c-.34,1.59-.67,3.13-1,4.64l-.37-.23.14-.11.15.41-3,0,.19-.12a11.86,11.86,0,0,1-1.86,2.7l0-.22c.36,1,.69,1.87,1,2.77h-.41l.06-.18.32.25-4,2.58-.09-.38.17,0L105,234l-2.11-2.06.2,0a11.83,11.83,0,0,1-3.22.6l.17-.12-1.24,2.68-.26-.25.16-.08,0,.36-4.63-1,.17-.28.1.12-.31.12c0-1.08,0-2,0-2.94l.09.15a12,12,0,0,1-2.68-1.85l.17,0-2.76,1v-.29l.14.05-.17.22c-1-1.51-1.81-2.78-2.58-4l.25-.06,0,.13-.23-.11,2-2.09,0,.13a11.51,11.51,0,0,1-.58-3.16l.06.1-2.65-1.23.13-.13,0,.09-.18,0c.44-2,.75-3.49,1-4.64l.09.06,0,0,0-.1,2.86,0a3.93,3.93,0,0,1-.7.06l-2.16.08H86l.12-.11,0,0,.12-.1,0,.16c-.23,1.14-.52,2.63-.92,4.65l-.06.26-.12-.24,0-.08L85,220l.24.11,2.66,1.2.06,0v.06a11.91,11.91,0,0,0,.6,3.09l0,.07,0,.05-2,2.11-.27.28,0-.39v-.13l0-.37.2.31,2.61,4,.23.36-.41-.14-.13,0-.41-.14.4-.15,2.75-1,.1,0,.07.06A11.62,11.62,0,0,0,94.32,231l.09,0v.1c0,.92,0,1.86,0,2.94v.51l-.32-.39-.1-.13-.32-.39.49.11,4.64,1,.53.11-.49.24-.15.08-.48.24.23-.49,1.23-2.68,0-.11h.11a11.5,11.5,0,0,0,3.12-.59l.11,0,.09.09,2.12,2.05.42.41-.59-.05-.17,0-.59-.06.49-.32,4-2.59.51-.33-.19.58-.06.17-.19.58-.22-.57c-.33-.9-.66-1.81-1-2.77l0-.13.09-.1a11.4,11.4,0,0,0,1.8-2.61l.06-.12h.13l3,0h.65l-.5.41-.14.12-.5.41.13-.64c.32-1.51.65-3.05,1-4.63l.13-.66.3.6.09.16.3.6-.61-.28-2.68-1.24-.13-.06v-.14a11.3,11.3,0,0,0-.58-3.11l0-.13.1-.11,2.06-2.11.48-.5-.06.69,0,.17-.07.7-.38-.59-2.58-4-.38-.59.67.23.16,0,.67.22-.67.25-2.76,1-.14,0-.11-.1a11,11,0,0,0-2.59-1.78l-.14-.07v-.16l0-2.93v-.73l.46.56.09.12.46.56-.71-.15-4.63-1-.71-.15.65-.33.12-.06.66-.33-.31.67-1.23,2.65-.07.14h-.15a11.54,11.54,0,0,0-3.07.56l-.15,0-.11-.11L93.49,208l-.52-.51.73.07h.11l.74.07-.63.41-4,2.56-.62.4.24-.7,0-.08.24-.71.25.7c.33.9.65,1.81,1,2.73l0,.14-.11.12a13,13,0,0,0-1.07,1.35c-.16.24-.31.48-.46.73l-.22.39,0,0,0,0-.05,0c-.06.13-.43-.07-.36-.09h0v0a.28.28,0,0,1,0-.13.65.65,0,0,1,.06-.24l.11-.21a11.37,11.37,0,0,1,1.58-2.26l.63-.71L91,213v.05l-.18.91-.32-.87c-.35-.93-.7-1.87-1-2.73l-.07-.19.17-.12,4.07-2.66.18-.11.14.14,2.11,2,.67.65-.91-.21-.09,0-.9-.21.88-.29a11.81,11.81,0,0,1,3.13-.59l.92-.05-.77.52-.09.06-.76.51.39-.83,1.23-2.68.08-.19.2,0,4.82,1,.2.05v.2c0,1,0,2,0,3v.91l-.48-.77-.07-.12-.47-.76.8.41a12.43,12.43,0,0,1,2.63,1.8l.66.61-.88-.17-.13,0-.87-.17.83-.31,2.79-1,.19-.07.11.17,2.69,4.16.11.16-.14.14-2.07,2.13-.61.62.2-.84,0-.14.2-.84.27.82a12.43,12.43,0,0,1,.58,3.14l0,.85-.48-.71-.08-.12-.48-.71.78.36,2.7,1.25.17.08,0,.18-1,4.86,0,.18h-.18l-3,0H109l.69-.43.13-.08.68-.42-.37.72a11.9,11.9,0,0,1-1.81,2.62l-.53.58.15-.77,0-.15.15-.77.27.74c.36,1,.72,1.94,1,2.8l.06.16-.15.09-4.17,2.7-.14.09-.12-.12-2.13-2.08-.51-.51.7.17.14,0,.7.17-.68.22a11.79,11.79,0,0,1-3.13.57l-.7,0,.58-.39.12-.08.58-.39-.29.64L99,235.33l-.06.14-.15,0L94,234.39l-.14,0v-.14c0-1.05,0-2.07,0-3v-.61l.32.52.07.11.32.51-.54-.27a12.28,12.28,0,0,1-2.61-1.81l-.42-.39.56.11.13,0,.56.11-.54.2-2.78,1-.11,0-.07-.1-2.65-4.14-.06-.09.08-.07,2.07-2.1.31-.32-.1.43,0,.1-.1.43-.13-.42a11.71,11.71,0,0,1-.55-3.1l0-.39.22.33,0,.07.22.33-.36-.17L85,220.34l-.07,0,0-.08c.44-1.93.79-3.51,1.07-4.71v-.05h0l2.17,0,.55,0Z"/></g><g id="Screens"><polyline class="cls-8" points="145.28 98.02 145.28 106.94 0 106.94 0 9.66 9.7 9.66"/><polyline class="cls-12" points="145.28 98.02 145.28 106.94 0 106.94 0 9.66 9.7 9.66"/><rect class="cls-7" x="10.14" y="0.26" width="145.28" height="97.28"/><path class="cls-8" d="M155.42,97.54s0-.61,0-1.77,0-2.89,0-5.14c0-4.5,0-11.1,0-19.56,0-16.9-.07-41.19-.11-70.81l.2.21L10.15.52h0L10.4.26c0,34.66,0,67.61,0,97.28l-.24-.24,104.67.12,29.9.06,8,0h2.05l.7,0h-2.7l-7.91,0L115,97.66l-104.83.11H9.9v-.23c0-29.67,0-62.62,0-97.28V0h.27L155.42.05h.21V.26c0,29.67-.08,54-.11,70.94,0,8.44,0,15-.05,19.52,0,2.23,0,3.93,0,5.09S155.42,97.54,155.42,97.54Z"/><path class="cls-8" d="M10.14,8.94c0-.14,32.5-.26,72.58-.26s72.58.12,72.58.26-32.49.26-72.58.26S10.14,9.09,10.14,8.94Z"/><path class="cls-8" d="M15.87,4.56A1.16,1.16,0,1,1,14.71,3.4,1.16,1.16,0,0,1,15.87,4.56Z"/><path class="cls-8" d="M19.86,4.56A1.16,1.16,0,1,1,18.7,3.4,1.16,1.16,0,0,1,19.86,4.56Z"/><path class="cls-8" d="M23.8,4.56A1.17,1.17,0,1,1,22.63,3.4,1.17,1.17,0,0,1,23.8,4.56Z"/><g class="cls-15"><path class="cls-7" d="M15.87,4.56A1.16,1.16,0,1,1,14.71,3.4,1.16,1.16,0,0,1,15.87,4.56Z"/><path class="cls-7" d="M19.86,4.56A1.16,1.16,0,1,1,18.7,3.4,1.16,1.16,0,0,1,19.86,4.56Z"/><path class="cls-7" d="M23.8,4.56A1.17,1.17,0,1,1,22.63,3.4,1.17,1.17,0,0,1,23.8,4.56Z"/></g><g class="cls-9"><rect class="cls-8" x="22.63" y="19.09" width="38.75" height="38.75"/></g><path class="cls-8" d="M135.5,30c0,.14-15.11.26-33.75.26S68,30.18,68,30s15.11-.26,33.76-.26S135.5,29.9,135.5,30Z"/><path class="cls-8" d="M135.5,37.24c0,.15-15.11.26-33.75.26S68,37.39,68,37.24,83.1,37,101.75,37,135.5,37.1,135.5,37.24Z"/><path class="cls-8" d="M135.5,44.44c0,.15-15.11.26-33.75.26S68,44.59,68,44.44s15.11-.26,33.76-.26S135.5,44.3,135.5,44.44Z"/><path class="cls-8" d="M107.89,51.64a9,9,0,0,1-1.57.11l-4.27.08c-3.61.05-8.6.08-14.11.08s-10.5,0-14.11-.08l-4.27-.08A9,9,0,0,1,68,51.64a9.9,9.9,0,0,1,1.57-.1l4.27-.08c3.61-.05,8.6-.08,14.11-.08s10.5,0,14.11.08l4.27.08A9.9,9.9,0,0,1,107.89,51.64Z"/><rect class="cls-8" x="25.06" y="70.91" width="18.21" height="18.21"/><rect class="cls-16" x="25.06" y="70.91" width="18.21" height="18.21"/><rect class="cls-8" x="58.09" y="70.91" width="18.21" height="18.21"/><rect class="cls-16" x="58.09" y="70.91" width="18.21" height="18.21"/><rect class="cls-8" x="91.12" y="70.91" width="18.21" height="18.21"/><rect class="cls-16" x="91.12" y="70.91" width="18.21" height="18.21"/><rect class="cls-8" x="124.14" y="70.91" width="18.21" height="18.21"/><rect class="cls-16" x="124.14" y="70.91" width="18.21" height="18.21"/><rect class="cls-7" x="271.33" y="198.94" width="164.45" height="66.8"/><path class="cls-8" d="M435.78,265.74s0-.41,0-1.2,0-2,0-3.46c0-3.05,0-7.53,0-13.3,0-11.52-.06-28.2-.1-48.84l.18.18-164.44.08h0l.26-.26c0,23.39,0,46,0,66.8l-.25-.25,117.91.11,34.2.07,9.16,0H435l.81,0H435l-2.34,0-9.11,0-34.14.07L271.33,266h-.25v-.25c0-20.83,0-43.41,0-66.8v-.26h.27l164.44.08H436v.18c0,20.69-.07,37.4-.1,49,0,5.75,0,10.21,0,13.25,0,1.5,0,2.65,0,3.43S435.78,265.74,435.78,265.74Z"/><path class="cls-8" d="M271.49,208c0-.15,36.76-.26,82.1-.26s82.09.11,82.09.26-36.75.26-82.09.26S271.49,208.09,271.49,208Z"/><path class="cls-8" d="M278.38,203.92a1.2,1.2,0,1,1-1.19-1.2A1.19,1.19,0,0,1,278.38,203.92Z"/><path class="cls-8" d="M282.47,203.92a1.2,1.2,0,1,1-1.19-1.2A1.19,1.19,0,0,1,282.47,203.92Z"/><path class="cls-8" d="M286.5,203.92a1.2,1.2,0,0,1-2.39,0,1.2,1.2,0,1,1,2.39,0Z"/><g class="cls-15"><path class="cls-7" d="M278.38,203.92a1.2,1.2,0,1,1-1.19-1.2A1.19,1.19,0,0,1,278.38,203.92Z"/><path class="cls-7" d="M282.47,203.92a1.2,1.2,0,1,1-1.19-1.2A1.19,1.19,0,0,1,282.47,203.92Z"/><path class="cls-7" d="M286.5,203.92a1.2,1.2,0,0,1-2.39,0,1.2,1.2,0,1,1,2.39,0Z"/></g><rect class="cls-8" x="285.31" y="218.8" width="39.72" height="39.72"/><rect class="cls-16" x="285.31" y="218.8" width="39.72" height="39.72"/><path class="cls-8" d="M424.4,229.45c0,.14-20.44.26-45.65.26s-45.65-.12-45.65-.26,20.44-.26,45.65-.26S424.4,229.3,424.4,229.45Z"/><path class="cls-8" d="M424.4,237.54c0,.14-20.44.26-45.65.26s-45.65-.12-45.65-.26,20.44-.26,45.65-.26S424.4,237.4,424.4,237.54Z"/><path class="cls-8" d="M391.88,245.63a2.41,2.41,0,0,1-.6.06l-1.71,0-6.3.09-20.78.07-20.78-.07-6.3-.09-1.71,0a2.41,2.41,0,0,1-.6-.06,2.87,2.87,0,0,1,.6,0l1.71-.05,6.3-.08,20.78-.08,20.78.08,6.3.08,1.71.05A2.87,2.87,0,0,1,391.88,245.63Z"/></g></g></svg>